<svg xmlns="http://www.w3.org/2000/svg" width="8.806" height="16.745" viewBox="0 0 8.806 16.745">
  <g id="Group_49" data-name="Group 49" transform="translate(-47.682 -57.969)">
    <path id="Path_15" data-name="Path 15" d="M54.287,57.969c.448,0,.9.024,1.345.044.291.012.583.054.856.083l-.021,2.7h-.214c-.3,0-.592,0-.887,0-.222,0-.444,0-.666.01-.715.024-1.24.292-1.277,1.184-.023.643-.039,2.062-.04,2.137.037,0,.743,0,1.454,0,.355,0,.7,0,.945,0h.577c-.145,1.036-.277,2.029-.422,3.03H53.384l-.057,7.565H50.19l.058-7.576H47.682l.023-3.012h2.577V63.9c0-.607,0-1.214.02-1.821a7.531,7.531,0,0,1,.1-1.155,3.427,3.427,0,0,1,1.374-2.25,3.945,3.945,0,0,1,2.261-.7Z" transform="translate(0 0)" fill="#9d9da9"/>
  </g>
</svg>
