<svg xmlns="http://www.w3.org/2000/svg" width="25.084" height="15.875" viewBox="0 0 25.084 15.875">
  <g id="Group_48" data-name="Group 48" transform="translate(-195.602 -136.794)">
    <g id="Group_46" data-name="Group 46" transform="translate(195.602 136.794)">
      <path id="Path_13" data-name="Path 13" d="M203.758,136.794a7.454,7.454,0,0,1,3.755,1.031,9.3,9.3,0,0,1,1.4,1.031c-.792.779-1.553,1.542-2.33,2.305a4.271,4.271,0,0,0-2.32-1.122,4.67,4.67,0,0,0-5.249,3.657,4.339,4.339,0,0,0-.11,1.435,4.751,4.751,0,0,0,3.244,4.13,4.588,4.588,0,0,0,1.386.209c.11,0,.22,0,.33-.01a4.661,4.661,0,0,0,2.319-.741,3.664,3.664,0,0,0,1.576-2.39h-4.252c0-.1.016-2.092.023-3.061l.009-.129h7.466a8.58,8.58,0,0,1-1.41,6.694,6.98,6.98,0,0,1-3.928,2.565,8.553,8.553,0,0,1-2.144.272q-.23,0-.461-.012a7.875,7.875,0,0,1-7.288-6.245,7.186,7.186,0,0,1-.152-2.137,7.782,7.782,0,0,1,1.79-4.535,7.875,7.875,0,0,1,4.273-2.717,6.425,6.425,0,0,1,1.314-.206C203.255,136.809,203.507,136.794,203.758,136.794Z" transform="translate(-195.602 -136.794)" fill="#9d9da9"/>
    </g>
    <g id="Group_47" data-name="Group 47" transform="translate(212.96 140.474)">
      <path id="Path_14" data-name="Path 14" d="M228.87,142.791v.076l-.021,2.695h2.771v.076l-.015,2.008v.084h-2.771l-.02,2.687v.076h-2.168v-.076l.02-2.687h-2.771v-.084l.015-2.008v-.076h2.771l.021-2.695v-.076h2.168Z" transform="translate(-223.894 -142.791)" fill="#9d9da9"/>
    </g>
  </g>
</svg>
