<svg xmlns="http://www.w3.org/2000/svg" width="364.528" height="361.575" viewBox="0 0 364.528 361.575">
  <g id="Group_195" data-name="Group 195" transform="translate(-106 -224)">
    <g id="Group_136" data-name="Group 136" transform="translate(-903.835 161.332)">
      <path id="Path_43" data-name="Path 43" d="M1355.227,228.736c-9.033-6.019-20.9-7.212-33.459-.276-13.847,7.648-24.026,15.461-40.7,12.43-26.195-4.761-47.4-19.613-75.087-18.194-14.591.748-29.679,5.871-39.014,17.209a41.786,41.786,0,0,0-8.6,32.768,46.18,46.18,0,0,0,17.7,29.049c7.073,5.354,15.836,8.7,24.67,8.3,8.033-.366,15.584-3.722,23.08-6.66,18.058-7.079,38.314-11.963,56.627-5.583,11.176,3.894,20.543,11.84,32.419,13.545a52.588,52.588,0,0,0,34.234-6.786c13.224-7.929,23.263-22.424,24.64-37.951C1373.132,250.776,1366.313,236.122,1355.227,228.736Z" fill="#afaff8"/>
      <g id="Group_84" data-name="Group 84">
        <g id="Group_83" data-name="Group 83">
          <path id="Path_44" data-name="Path 44" d="M1229.154,331.661c-7.491,3.249-16.411,7.558-19.805,15.554-3.418,8.051.927,16.377,7.365,21.4,4.363,3.4,9.512,5.569,14.521,7.822q9.393,4.223,18.789,8.441c5.15,2.314,10.9,4.379,14.831,8.6,3.522,3.777,5.116,8.929,6.808,13.687,2.244,6.313,4.852,13.687,11.705,16.255,7.655,2.868,16.22-2.067,18.6-9.632,2.709-8.608-1.85-16.659-8.551-21.838-8.516-6.582-18.438-10.182-24.57-19.589-6.729-10.325-4.582-24.05-13.664-32.984a27.333,27.333,0,0,0-25.823-7.121,1.031,1.031,0,0,0,.547,1.986,25.284,25.284,0,0,1,24.752,7.56c6.648,7.3,5.656,17.477,9.444,26.091a39.912,39.912,0,0,0,14.393,16.949c6.722,4.548,15.489,7.933,19.776,15.236,2.736,4.66,3.359,10.723.679,15.573-2.99,5.41-10.169,8.211-15.858,5.412-6.786-3.34-8.482-12.134-10.93-18.566-2.27-5.963-5.257-11.008-10.813-14.417-8.451-5.186-18.341-8.6-27.37-12.653-9.671-4.345-24.356-9.971-23.8-22.923.436-10.163,11.98-15.578,20.012-19.063,1.212-.526.165-2.3-1.039-1.777Z" fill="#afaff8"/>
        </g>
      </g>
      <g id="Group_86" data-name="Group 86">
        <g id="Group_85" data-name="Group 85">
          <path id="Path_45" data-name="Path 45" d="M1269.911,183.644c-3.838-10.988,7.459-17.868,17.047-17.71,7.636.126,15.241,3.1,22.634-.172,14.17-6.272,15.037-24.331,26.167-33.5,7.509-6.186,19.228-5.794,21.312,5.382,1.645,8.823-4.814,16.316-11.034,21.63-6.2,5.294-12.64,9.844-17.793,16.26-4.859,6.049-8.991,12.75-14.723,18.049-7.372,6.815-18.146,11.057-28.155,8.323-9.165-2.5-16.15-10.968-15.786-20.583.053-1.414-2.144-1.412-2.2,0-.668,17.648,18.172,26.937,33.479,22.159,9.075-2.833,15.752-9.154,21.465-16.52,3.21-4.138,6.152-8.487,9.606-12.431,3.695-4.219,8.056-7.592,12.424-11.068,6.631-5.276,13.828-11.779,15.007-20.687.862-6.515-2.062-13.966-8.594-16.342-7.237-2.633-15.047,1.952-19.667,7.347-6.7,7.826-8.976,18.62-16.495,25.855-10.655,10.251-23.393,1.255-35.707,5.192-8.235,2.633-14.132,10.742-11.108,19.4.464,1.326,2.587.756,2.119-.584Z" fill="#afaff8"/>
        </g>
      </g>
      <g id="Group_135" data-name="Group 135">
        <g id="Group_130" data-name="Group 130">
          <g id="Group_88" data-name="Group 88">
            <path id="Path_46" data-name="Path 46" d="M1327.447,168.161a91.964,91.964,0,0,0-5.252-23.808c-1.986-.051-3.969-.16-5.951-.28a43.414,43.414,0,0,1,.379,4.551c.126,2.73.247,5.466.529,8.182.655,6.322,1.4,12.635,2.128,18.949a5.139,5.139,0,0,1-.551,2.965c-2.322,4.719-4.268,9.622-6.926,14.181a22.809,22.809,0,0,0-1.138,2.627,1.8,1.8,0,0,0,.107.591,119.549,119.549,0,0,1,5.8,10.629c.051.111.2.178.3.266a16.375,16.375,0,0,0,3.815-5.523c1.683-3.444,3.092-7.008,4.447-10.588a43.656,43.656,0,0,0,2.943-12.114A59.628,59.628,0,0,0,1327.447,168.161Z" fill="#d86f5f"/>
            <g id="Group_87" data-name="Group 87">
              <path id="Path_47" data-name="Path 47" d="M1357.31,327.579c-.674-5.926-3.665-12.06-10.188-12.945a16.338,16.338,0,0,0-10.391,2.536c-7.182,4.294-18.819,17.984-25.885,5.9-2.4-4.114-3.6-9.153-4.6-13.77-2.254-10.379-4.29-20.807-6.828-31.123q-.53-1.485-1.026-2.979a178.177,178.177,0,0,1-25.422,2.475,66.942,66.942,0,0,1-23.444-3.3c-1.363-.44-2.749-.813-4.124-1.217-11.662,14.354-19.6,30.609-28.074,46.908-7.691,14.792-19.412,26.886-28.573,40.707-8.113,12.238-18.176,30.871-7.555,44.6a46.551,46.551,0,0,0,4.6,4.9,22.29,22.29,0,0,0,5.87,3.61c1.012.152,2.02.375,3.039.445,10.178.7,18.071-3.71,24.21-11.385a71.774,71.774,0,0,0,9.447-16.283c4.686-10.724,8.572-21.756,12.821-32.647A78.271,78.271,0,0,1,1252.7,333.53a19.207,19.207,0,0,1,6.065-5.11c6.279-3.353,11.367,1.04,13.646,6.8,4.719,11.922,8.5,24.5,17.768,33.862,5.238,5.3,12.252,9.154,19.7,9.348,15.65.409,31.921-13.836,41.232-25.209C1355.114,348.329,1358.359,336.8,1357.31,327.579Z" fill="#2b2b42"/>
              <path id="Path_48" data-name="Path 48" d="M1306.9,194.4a8.718,8.718,0,0,0-.664.6,38.139,38.139,0,0,1-2.969,2.805,48.952,48.952,0,0,0-6.424,6.271,2.353,2.353,0,0,1-1.961.814c-2.452.056-4.9.09-7.352.3-1.354.114-3.545-1.176-4.337.282-.093.171.339,1.344.087,1.428a5.621,5.621,0,0,1-5.9,5.449c-3.054-.031-5.12-2.314-5.234-5.786-.437-.9-1.189-.977-2.069-.855-3.8.527-7.636.157-11.438.393-2.41.149-4.841-2.317-6.537-3.753-3.5-2.96-6.783-3.74-10.473-6.432-.367-.268-.7-.7-1.393-.436-.585,2.292-1.191,4.663-1.8,7.035l-2.457,12.636c-.549,1.865.347,3.13,1.746,4.178.6.45,1.209.891,1.829,1.316a35.538,35.538,0,0,0,10.6,4.783,1.658,1.658,0,0,1,1.441,2.009c-.163,3.21-.362,6.418-.811,9.6-.793,5.617-1.677,11.215-3.717,16.563-1.848,4.846-3.372,9.815-5.689,14.482-.879,1.771-.485,2.732,1.275,3.691.9.487,1.823.917,2.736,1.373,1.376.4,2.761.777,4.124,1.217a66.942,66.942,0,0,0,23.444,3.3,169.868,169.868,0,0,0,27.306-2.843c4.694-2.27,5.11-3.237,3.827-8.353a84.387,84.387,0,0,1-2.781-17.989c-.2-6.632.364-13.25.376-19.876a3.18,3.18,0,0,1,2.108-3.269,31.856,31.856,0,0,0,5.489-3.174c3.546-2.678,5.739-6.346,7.743-10.188a4.663,4.663,0,0,0,.553-3.621A161.347,161.347,0,0,0,1306.9,194.4Z" fill="#e2ac63"/>
              <path id="Path_49" data-name="Path 49" d="M1236.217,200.142a76.055,76.055,0,0,0-5.985-7.025c-1.809-1.873-3.4-3.936-5.074-5.919a4.455,4.455,0,0,1-1.193-2.76c-.189-4.857-1.193-9.621-1.614-14.457-.469-5.374-1.321-10.716-2.053-16.065a31.831,31.831,0,0,1,.631-8.785c-1.821.692-4.211,4.667-6.009,4.288a7.707,7.707,0,0,1-.11,1.7c-1.077,5.919-2.208,11.831-2.819,17.826-.661,6.483-.348,12.84,2.315,18.906,1.375,3.13,2.8,6.24,4.23,9.344a13.749,13.749,0,0,0,1.148,1.936c4.374,6.418,10.051,11.512,16.3,16.023l2.457-12.636A8.239,8.239,0,0,1,1236.217,200.142Z" fill="#d86f5f"/>
              <path id="Path_50" data-name="Path 50" d="M1283.283,206.907a5.621,5.621,0,0,1-5.9,5.449c-3.054-.031-5.12-2.314-5.234-5.786a5.127,5.127,0,0,0,2.685-5.406,1.527,1.527,0,0,0-.823-1.084,8.114,8.114,0,0,1-2.576-2.576c-.761-1.207-1.1-2.659-3-2.871-1.039-.116-1.389-1.42-1.36-2.495.037-1.378.469-2.553,2.01-2.929.991.65,1.7.41,2.01-.723a1.554,1.554,0,0,1,1.762-1.309c.6.016,1.2-.288,1.808-.314a5.49,5.49,0,0,0,5.456-4.145c.029-.089.216-.128.388-.222a3.439,3.439,0,0,1,1.822,2.744c.306,1.469.5,2.963.82,4.429.411,1.866.967,2.145,2.9,1.607,1.541.85,1.677,2.222,1.255,3.7a2.691,2.691,0,0,1-2.862,2.134,1.582,1.582,0,0,0-1.638.921,10.851,10.851,0,0,1-.706,1c-.48.7-1.557,1.012-1.419,2.1a8.121,8.121,0,0,0,1.4,4.4C1282.469,206,1282.882,206.448,1283.283,206.907Z" fill="#d77062"/>
              <path id="Path_51" data-name="Path 51" d="M1181.2,405.367a46.551,46.551,0,0,0,4.6,4.9,22.29,22.29,0,0,0,5.87,3.61.985.985,0,0,0-.848.989,26.693,26.693,0,0,1-.4,3.044c-.88,4.133-3.542,5.813-7.526,3.934-2.219-1.046-3.765-2.94-5.527-4.528a25.3,25.3,0,0,0-6.218-4.279,33.926,33.926,0,0,1-5.713-3.216,6.736,6.736,0,0,1-2-2.026,3.2,3.2,0,0,1,2.443-4.907,8.478,8.478,0,0,1,2.853.165c3.272.709,6.555,1.364,9.826,2.072A14.871,14.871,0,0,0,1181.2,405.367Z" fill="#9bf4ab"/>
              <path id="Path_52" data-name="Path 52" d="M1356.755,327.645c-.3-1.46-.543-2.938-.925-4.378-1.467-5.527-4.639-8.75-10.659-8.769a5.543,5.543,0,0,1-.8-.12,8.255,8.255,0,0,1,7.431-3.446,10.886,10.886,0,0,1,5.364,1.845c1.48.984,2.888,2.057,4.3,3.131,2.515,1.912,5.455,3.1,8.181,4.656a15.064,15.064,0,0,1,3.075,2.013c2.218,2.115,2.207,4.359-.143,6.3a6.624,6.624,0,0,1-5.553,1.455A44.561,44.561,0,0,1,1356.755,327.645Z" fill="#9bf4ab"/>
              <path id="Path_53" data-name="Path 53" d="M1285.207,190.685a1.874,1.874,0,0,0-.708.156c-.1-5.917-3.423-10.671-7.515-10.671-3.675,0-6.729,3.83-7.389,8.894a1.715,1.715,0,0,0-.378-.054c-1.358,0-2.46,1.564-2.46,3.493s1.1,3.493,2.46,3.493a1.841,1.841,0,0,0,.949-.271c.984,4.354,3.8,6.331,6.818,6.331,2.673,0,5.015-2.034,6.35-5.089a2.316,2.316,0,0,0,1.873,1.132c1.441,0,2.61-1.66,2.61-3.707S1286.648,190.685,1285.207,190.685Z" fill="#d77062"/>
            </g>
            <path id="Path_54" data-name="Path 54" d="M1286,190.9a2,2,0,0,0-2.267,1.043,49.219,49.219,0,0,1-1.244-6.355,4.415,4.415,0,0,1-3.778,2,13.016,13.016,0,0,1-4.359-.889,3.918,3.918,0,0,1-.656,2.988,2.821,2.821,0,0,1-4.977-.633,4.007,4.007,0,0,1,.022-2.938,4.389,4.389,0,0,1-3.461-2.464,6.154,6.154,0,0,1-.31-4.334,3.318,3.318,0,0,1,.694-1.4,4.121,4.121,0,0,1,2.739-.977,4.53,4.53,0,0,1-1.777-4.649,4.647,4.647,0,0,1,3.7-3.43,3.46,3.46,0,0,1,1.974.223,2.353,2.353,0,0,1,1.3,1.454,12.577,12.577,0,0,1-.541-3.6,5.015,5.015,0,0,1,1.178-3.215,4.831,4.831,0,0,1,2.688-1.418,6.48,6.48,0,0,1,6.619,2.991c1.4,2.365,1.111,5.329.645,8.035q-.427,2.477-1.008,4.923a1.484,1.484,0,0,1,2.178-.373,3.835,3.835,0,0,1,1.287,2.18A16.589,16.589,0,0,1,1286,190.9Z" fill="#e2ac63"/>
          </g>
          <path id="Path_55" data-name="Path 55" d="M1329.178,137.777c-.669-.888-4.343,2.3-4.343,2.3s4.526-4.457,4.14-5.217c-.609-1.2-5.674,3.949-5.674,3.949s5.371-5.745,4.174-6.607-5.867,5.428-5.867,5.428,4.027-6.187,2.878-6.744-6.037,7.624-6.037,7.624-.718-4.767-1.7-4.683c-1.654.141-.553,10.33-.553,10.33l4.333,3.575S1329.846,138.665,1329.178,137.777Z" fill="#d86f5f"/>
          <path id="Path_56" data-name="Path 56" d="M1207.892,141.87c.755-.816,4.086,2.729,4.086,2.729s-4.049-4.894-3.588-5.611c.727-1.132,5.243,4.5,5.243,4.5s-4.76-6.261-3.482-7,5.286,6,5.286,6-3.378-6.564-2.178-7,5.232,8.2,5.232,8.2,1.2-4.669,2.164-4.487c1.631.309-.5,10.333-.5,10.333l-4.673,3.117S1207.136,142.685,1207.892,141.87Z" fill="#d86f5f"/>
          <g id="Group_90" data-name="Group 90">
            <g id="Group_89" data-name="Group 89">
              <path id="Path_57" data-name="Path 57" d="M1238.122,193.619a154.558,154.558,0,0,1-5.845,23.282c-1.022,3.05,3.792,4.358,4.808,1.326a154.455,154.455,0,0,0,5.845-23.282c.534-3.139-4.27-4.488-4.808-1.326Z" fill="#fbf3e8"/>
            </g>
          </g>
          <g id="Group_92" data-name="Group 92">
            <g id="Group_91" data-name="Group 91">
              <path id="Path_58" data-name="Path 58" d="M1305.464,193.421l11.2,17.874,3.916-3.021-.481-.468c-2.3-2.241-5.828,1.281-3.525,3.526l.48.468c1.985,1.935,5.454-.567,3.915-3.021l-11.2-17.874c-1.7-2.713-6.016-.213-4.305,2.516Z" fill="#fbf3e8"/>
            </g>
          </g>
          <path id="Path_59" data-name="Path 59" d="M1278.855,195.618a2.837,2.837,0,0,1-5.647-.281Z" fill="#fff"/>
          <g id="Group_94" data-name="Group 94">
            <g id="Group_93" data-name="Group 93">
              <path id="Path_60" data-name="Path 60" d="M1275.034,242.532A68.121,68.121,0,0,1,1260.979,255c-1.33.884-.083,3.044,1.258,2.153a70.471,70.471,0,0,0,14.559-12.857c1.039-1.213-.716-2.984-1.762-1.763Z" fill="#fbf3e8"/>
            </g>
          </g>
          <g id="Group_96" data-name="Group 96">
            <g id="Group_95" data-name="Group 95">
              <path id="Path_61" data-name="Path 61" d="M1285.951,230.926a47.3,47.3,0,0,1-4.872,5.675,1.247,1.247,0,0,0,1.762,1.763,51.242,51.242,0,0,0,5.263-6.179c.944-1.3-1.218-2.546-2.153-1.259Z" fill="#fbf3e8"/>
            </g>
          </g>
          <g id="Group_98" data-name="Group 98">
            <g id="Group_97" data-name="Group 97">
              <path id="Path_62" data-name="Path 62" d="M1257.582,276.725c-6.389,13.005-5.828,29.421-4.882,43.521.054.8,1.3.8,1.247,0-.93-13.843-1.548-30.152,4.711-42.892.353-.717-.722-1.349-1.076-.629Z" fill="#9bf4ab"/>
            </g>
          </g>
          <g id="Group_100" data-name="Group 100">
            <g id="Group_99" data-name="Group 99">
              <path id="Path_63" data-name="Path 63" d="M1264.537,277.922c-3.3,14.853-3.161,30.245-.669,45.21.132.79,1.333.455,1.2-.331-2.453-14.734-2.583-29.925.669-44.547.174-.782-1.028-1.116-1.2-.332Z" fill="#9bf4ab"/>
            </g>
          </g>
          <g id="Group_102" data-name="Group 102">
            <g id="Group_101" data-name="Group 101">
              <path id="Path_64" data-name="Path 64" d="M1249.518,321.489c7.755-.825,14.785.2,19.413,7.02,2.935,4.324,4.555,9.424,5.8,14.454a.624.624,0,0,0,1.2-.331c-1.461-5.906-3.485-12.126-7.494-16.841-4.863-5.72-11.8-6.306-18.921-5.548-.79.084-.8,1.331,0,1.246Z" fill="#9bf4ab"/>
            </g>
          </g>
          <g id="Group_104" data-name="Group 104">
            <g id="Group_103" data-name="Group 103">
              <path id="Path_65" data-name="Path 65" d="M1280.995,278.634c3.964,8.808,11.351,23.94,23.577,20.307a.624.624,0,0,0-.331-1.2c-11.565,3.436-18.418-11.4-22.17-19.734-.328-.73-1.4-.1-1.076.629Z" fill="#9bf4ab"/>
            </g>
          </g>
          <g id="Group_106" data-name="Group 106">
            <g id="Group_105" data-name="Group 105">
              <path id="Path_66" data-name="Path 66" d="M1251.568,275.6c-2.321,4.441-4.676,9-8.246,12.587a19.724,19.724,0,0,1-6.287,4.356c-1.921.812-4.005.9-5.791,1.961a.624.624,0,0,0,.629,1.076c2.032-1.2,4.686-1.308,6.831-2.4a21.933,21.933,0,0,0,5.5-4.108c3.646-3.663,6.069-8.3,8.44-12.838.371-.711-.7-1.342-1.076-.63Z" fill="#9bf4ab"/>
            </g>
          </g>
          <g id="Group_108" data-name="Group 108">
            <g id="Group_107" data-name="Group 107">
              <path id="Path_67" data-name="Path 67" d="M1256.918,321.85c-14.293,11.6-22.534,28.082-30.031,44.508-4.177,9.151-8.4,18.483-14.76,26.364-6.527,8.082-17.384,17.341-28.537,14.818-.781-.177-1.114,1.025-.331,1.2,18.683,4.226,33.265-18.119,40.156-32.05,9.566-19.34,17.088-39.927,34.384-53.961.623-.5-.263-1.383-.881-.881Z" fill="#9bf4ab"/>
            </g>
          </g>
          <g id="Group_110" data-name="Group 110">
            <g id="Group_109" data-name="Group 109">
              <path id="Path_68" data-name="Path 68" d="M1298,298.89l3.135,16.153c.633,3.256.622,9.606,2.709,12.234,1.989,2.505,6.305,3.712,8.766,5.894,4.161,3.689,6.967,8.393,7.272,14,.043.8,1.29.8,1.246,0-.4-7.3-4.723-13.109-10.6-17.194-2.091-1.453-5.014-2.358-6.16-4.816-1.088-2.335-1.174-6.048-1.66-8.552l-3.5-18.053c-.153-.787-1.354-.454-1.2.331Z" fill="#9bf4ab"/>
            </g>
          </g>
          <g id="Group_112" data-name="Group 112">
            <g id="Group_111" data-name="Group 111">
              <path id="Path_69" data-name="Path 69" d="M1320.016,340.376a82.441,82.441,0,0,1,17.729-15.15c6.671-4.19,17.307-10.887,24.387-4.154.581.553,1.464-.327.881-.881-5.956-5.665-13.91-2.575-20.259.728a82.855,82.855,0,0,0-23.619,18.575c-.532.6.346,1.483.881.882Z" fill="#9bf4ab"/>
            </g>
          </g>
          <g id="Group_114" data-name="Group 114">
            <g id="Group_113" data-name="Group 113">
              <path id="Path_70" data-name="Path 70" d="M1162.952,406.165a72.96,72.96,0,0,1,15.9,8.7c3.429,2.51,6.358,5.978,10.869,5.911a.624.624,0,0,0,0-1.247c-4.87.073-10.547-6.156-14.589-8.658a77.334,77.334,0,0,0-11.851-5.907c-.744-.3-1.067.906-.331,1.2Z" fill="#f0fef3"/>
            </g>
          </g>
          <g id="Group_116" data-name="Group 116">
            <g id="Group_115" data-name="Group 115">
              <path id="Path_71" data-name="Path 71" d="M1172.152,401.357a26.052,26.052,0,0,1,1.376,6.144c.078.792,1.325.8,1.247,0a27.468,27.468,0,0,0-1.421-6.475c-.264-.752-1.469-.428-1.2.331Z" fill="#f0fef3"/>
            </g>
          </g>
          <g id="Group_118" data-name="Group 118">
            <g id="Group_117" data-name="Group 117">
              <path id="Path_72" data-name="Path 72" d="M1174.806,401.358a31.639,31.639,0,0,0,2.405,7.457c.336.727,1.411.1,1.076-.629a30.346,30.346,0,0,1-2.279-7.159c-.149-.787-1.35-.454-1.2.331Z" fill="#f0fef3"/>
            </g>
          </g>
          <g id="Group_120" data-name="Group 120">
            <g id="Group_119" data-name="Group 119">
              <path id="Path_73" data-name="Path 73" d="M1347.93,311.8c4.892.528,8.486,5.632,12.82,7.794,4.313,2.152,8.863,3.434,12.518,6.738.594.537,1.478-.342.882-.882-4.1-3.706-9.335-4.95-14.059-7.6-4.265-2.393-7.054-6.746-12.161-7.3-.8-.086-.791,1.161,0,1.246Z" fill="#f0fef3"/>
            </g>
          </g>
          <g id="Group_121" data-name="Group 121">
            <path id="Path_74" data-name="Path 74" d="M1241.714,199.682a83.742,83.742,0,0,1,13.986,9.931c.6.527,1.486-.351.882-.881a85.354,85.354,0,0,0-14.239-10.126.624.624,0,0,0-.629,1.076Z" fill="#fbf3e8"/>
          </g>
          <g id="Group_122" data-name="Group 122">
            <path id="Path_75" data-name="Path 75" d="M1256.023,209.9a127.27,127.27,0,0,1,17.7.264c.8.068.795-1.179,0-1.246a126.962,126.962,0,0,0-17.7-.264c-.8.043-.8,1.29,0,1.246Z" fill="#fbf3e8"/>
          </g>
          <g id="Group_123" data-name="Group 123">
            <path id="Path_76" data-name="Path 76" d="M1242.3,197.012a57.28,57.28,0,0,1,13.481,9.294c.588.545,1.471-.335.881-.881a58.351,58.351,0,0,0-13.733-9.489c-.716-.356-1.348.719-.629,1.076Z" fill="#fbf3e8"/>
          </g>
          <g id="Group_124" data-name="Group 124">
            <path id="Path_77" data-name="Path 77" d="M1256.523,206.436h15.208a.623.623,0,0,0,0-1.246h-15.208a.623.623,0,0,0,0,1.246Z" fill="#fbf3e8"/>
          </g>
          <g id="Group_125" data-name="Group 125">
            <path id="Path_78" data-name="Path 78" d="M1283.2,206.1q6.508-.27,13.018-.144-.156-.58-.314-1.162l-.3.231c-.626.483-.006,1.566.629,1.077l.3-.231a.63.63,0,0,0-.315-1.162q-6.511-.126-13.018.144c-.8.034-.8,1.28,0,1.247Z" fill="#fbf3e8"/>
          </g>
          <g id="Group_126" data-name="Group 126">
            <path id="Path_79" data-name="Path 79" d="M1296.507,205.668a42.43,42.43,0,0,1,11.152-10.349c.673-.431.049-1.511-.63-1.076a44.133,44.133,0,0,0-11.6,10.8c-.481.643.6,1.265,1.077.629Z" fill="#fbf3e8"/>
          </g>
          <g id="Group_127" data-name="Group 127">
            <path id="Path_80" data-name="Path 80" d="M1282.7,209.2l15.212-.944c.8-.049.8-1.3,0-1.246l-15.212.944c-.8.049-.8,1.3,0,1.246Z" fill="#fbf3e8"/>
          </g>
          <g id="Group_128" data-name="Group 128">
            <path id="Path_81" data-name="Path 81" d="M1297.666,208.3a42.2,42.2,0,0,1,12.051-10.13.624.624,0,0,0-.629-1.076,43.077,43.077,0,0,0-12.3,10.325c-.5.616.372,1.5.881.881Z" fill="#fbf3e8"/>
          </g>
          <g id="Group_129" data-name="Group 129">
            <path id="Path_82" data-name="Path 82" d="M1270.825,205.515c.437,1.947.155,3.975,1.776,5.439,1.355,1.224,3.38,1.465,5.134,1.483,5.039.049,6.61-3.769,6.7-8.227a1.247,1.247,0,0,0-2.493,0,8.816,8.816,0,0,1-.687,4.114c-.866,1.557-2.612,1.7-4.2,1.593-1.262-.089-2.488-.278-3.151-1.423-.569-.982-.426-2.521-.678-3.642-.352-1.565-2.756-.9-2.4.663Z" fill="#fbf3e8"/>
          </g>
        </g>
        <g id="Group_132" data-name="Group 132">
          <g id="Group_131" data-name="Group 131">
            <path id="Path_83" data-name="Path 83" d="M1362.274,323.738v6.649a.623.623,0,0,0,1.246,0v-6.649a.623.623,0,0,0-1.246,0Z" fill="#f0fef3"/>
          </g>
        </g>
        <g id="Group_134" data-name="Group 134">
          <g id="Group_133" data-name="Group 133">
            <path id="Path_84" data-name="Path 84" d="M1366.82,327.529a35.331,35.331,0,0,0-.657,3.489c-.107.785,1.094,1.124,1.2.332a35.351,35.351,0,0,1,.657-3.49c.188-.779-1.014-1.112-1.2-.331Z" fill="#f0fef3"/>
          </g>
        </g>
      </g>
      <path id="Path_85" data-name="Path 85" d="M1339.572,387.807a3.26,3.26,0,1,1-3.26-3.259A3.26,3.26,0,0,1,1339.572,387.807Z" fill="#e2ac63"/>
      <path id="Path_86" data-name="Path 86" d="M1354.364,208.1a3.585,3.585,0,1,1-3.585-3.585A3.585,3.585,0,0,1,1354.364,208.1Z" fill="#d86f5f"/>
      <path id="Path_87" data-name="Path 87" d="M1210.888,237.929a4.456,4.456,0,1,1-4.456-4.456A4.456,4.456,0,0,1,1210.888,237.929Z" fill="#e2ac63"/>
      <circle id="Ellipse_25" data-name="Ellipse 25" cx="3.239" cy="3.239" r="3.239" transform="translate(1191.947 206.93)" fill="#d86f5f"/>
    </g>
    <g id="Group_157" data-name="Group 157" transform="translate(-1062.731 -392.414)">
      <path id="Path_88" data-name="Path 88" d="M1285.149,704.635c-2.28-6.3-7.028-11.851-13.56-13.464-12.086-.984-18.392,2.086-24.641,8.114s-9.835,14.226-13.319,22.179-7.184,16.123-13.582,21.993c-10.92,10.018-27.759,11.593-38.389,21.919s-12.229,27.963-5.469,41.152,20.6,21.89,35.168,24.631a45.2,45.2,0,0,0,14.38.572c14.043-1.9,26-12.253,32.429-24.881s7.941-27.252,7.184-41.4c-.369-6.9-1.19-14.137,1.652-20.43,5.635-12.478,20.033-16.768,19.66-32.494A25.121,25.121,0,0,0,1285.149,704.635Z" fill="#afaff8"/>
      <g id="Group_138" data-name="Group 138">
        <g id="Group_137" data-name="Group 137">
          <path id="Path_89" data-name="Path 89" d="M1312.72,621.491c8.879-7.526,19.355.549,22.648,9.555,2.623,7.173,2.576,15.34,8.283,21.066,10.939,10.975,28.107,5.3,40.66,12.4,8.469,4.788,12.308,15.868,2.624,21.824-7.644,4.7-16.957,1.361-24.149-2.538-7.166-3.885-13.725-8.265-21.562-10.772-7.39-2.365-15.128-3.817-22.13-7.266-9.006-4.435-16.833-12.969-17.873-23.293-.952-9.452,4.442-19.01,13.548-22.121,1.339-.457.548-2.508-.789-2.051-16.712,5.709-18.621,26.628-8.669,39.2,5.9,7.454,14.2,11.418,23.123,14.107,5.014,1.511,10.129,2.7,15.05,4.505,5.263,1.935,9.976,4.8,14.789,7.625,7.3,4.3,15.957,8.679,24.694,6.583,6.391-1.533,12.3-6.936,12.17-13.886-.14-7.7-7.222-13.344-13.915-15.72-9.711-3.448-20.6-1.7-30.053-6.119-13.391-6.266-9.566-21.384-17.66-31.464-5.413-6.743-15.1-9.337-22.094-3.406-1.072.908.223,2.685,1.3,1.768Z" fill="#afaff8"/>
        </g>
      </g>
      <path id="Path_90" data-name="Path 90" d="M1321.765,779a3.26,3.26,0,1,1-3.26-3.26A3.261,3.261,0,0,1,1321.765,779Z" fill="#e2ac63"/>
      <path id="Path_91" data-name="Path 91" d="M1364.364,710.119a3.585,3.585,0,1,1-3.585-3.585A3.585,3.585,0,0,1,1364.364,710.119Z" fill="#d86f5f"/>
      <path id="Path_92" data-name="Path 92" d="M1199.641,734.943a4.456,4.456,0,1,1-4.456-4.456A4.456,4.456,0,0,1,1199.641,734.943Z" fill="#e2ac63"/>
      <circle id="Ellipse_26" data-name="Ellipse 26" cx="3.239" cy="3.239" r="3.239" transform="translate(1223.175 682.381)" fill="#d86f5f"/>
      <g id="Group_156" data-name="Group 156">
        <path id="Path_93" data-name="Path 93" d="M1269.2,703.123a18.963,18.963,0,0,1-7.034-5.508,17.014,17.014,0,0,1-3.758-11.849,7.945,7.945,0,0,1,7.151-7.531,11.971,11.971,0,0,1,6.617.962c1.249.555,2.51,1.093,3.729,1.71a4.3,4.3,0,0,0,4.8-.573,12.813,12.813,0,0,0,4.617-6.137c.961-2.634,1.893-5.28,2.9-7.9a18.232,18.232,0,0,1,5.961-8.192c4.584-3.5,10.222-3.669,14.465-.455a9.992,9.992,0,0,1,3.761,5.477c.231.859.442,1.727.745,2.561a5.475,5.475,0,0,0,7.032,3.658,14.822,14.822,0,0,0,5.333-2.989,31.962,31.962,0,0,0,3.688-3.561,31.215,31.215,0,0,1,7.736-6.356c9.025-5.053,19.518-3.426,26.731,6.038,5.8,7.607,2.522,17.74-2.414,22.236a21.8,21.8,0,0,1-6.529,4.182c-4.755,1.923-9.523,3.816-14.281,5.732-.76.307-1.505.656-2.243,1.014-3.8,1.845-5.679,4.983-6.085,9.1-.241,2.451-.424,4.909-.715,7.353a17.507,17.507,0,0,1-6.84,11.974,9.4,9.4,0,0,1-11.8.459c-1.92-1.306-3.712-2.8-5.55-4.227a26.032,26.032,0,0,0-4.1-2.714c-1.949-.993-2.8-.831-4.364.761-.72.73-1.39,1.516-2.153,2.2-3.126,2.786-6.718,2.7-9.728-.172a32.3,32.3,0,0,1-4.116-5.359c.945-1.227,1.85-2.331,3.624-2.6a3.264,3.264,0,0,0,2.634-3.037,2.126,2.126,0,0,0-.949-2.3,1.632,1.632,0,0,0-2.055.295.6.6,0,0,1-.886.073c-.861-1.4-.5-2.969,0-4.542.124-.388.287-.849-.043-1.153-.4-.366-.761.023-1.062.263-2.762,2.2-7.782.9-9.65-1.478a2.041,2.041,0,0,0-1.175-.962,7.849,7.849,0,0,0-1.669,2.444C1271.07,703.21,1270.372,703.589,1269.2,703.123Z" fill="#2b2b42"/>
        <path id="Path_94" data-name="Path 94" d="M1274.157,717.3a2.9,2.9,0,0,1-.135.37,27.8,27.8,0,0,1-3.208,5.218,2.041,2.041,0,0,1-2.009.7c-4.863-.287-17.637,1.706-22.348,2.777,3.947,5.028,20.938,12.6,27.161,13.408,12.4,1.619,23.169-2.441,29.778-5.2a208.613,208.613,0,0,0-20.958-9.278,2.266,2.266,0,0,1-1.825-1.913c-.233-1.342-.606-2.661-.831-4a6.677,6.677,0,0,1-.175-2.079,10.7,10.7,0,0,0,4.64-3.936c.06-.049.126-.09.188-.137.019.016.032.036.051.051,1.59,1.227,4.092.65,5.59-1.29s1.425-4.507-.165-5.734a3.381,3.381,0,0,0-3.081-.46c.4-5.6-2.275-10.468-6.536-11.349-4.783-.99-9.74,3.423-11.071,9.855C1268.021,710.112,1270.2,715.572,1274.157,717.3Z" fill="#ecb8af"/>
        <path id="Path_95" data-name="Path 95" d="M1268.762,700.964a5.118,5.118,0,0,0,.905,1.759,4.316,4.316,0,0,0,3.121,1.165c2.506.087,5.282-.989,6.249-3.3a3.671,3.671,0,0,0,4.729,4.02,3.685,3.685,0,0,0,2.059,5.164,7.341,7.341,0,0,1,5.9-6.764,31.957,31.957,0,0,0-3.311-11.445,12.315,12.315,0,0,0-2.7-3.775c-3.647-3.207-8.393-1.923-12.754-1.857-1.275.019-2.64-.026-3.681.831-1.514,1.246-1.964,3.7-2.08,5.533A22.161,22.161,0,0,0,1268.762,700.964Z" fill="#2b2b42"/>
        <path id="Path_96" data-name="Path 96" d="M1221.687,906.743c2.5-.438,5-1.007,7.545-.264a3.255,3.255,0,0,0,.145.8c1.142,2.542.333,4.613-1.456,6.517a25.154,25.154,0,0,1-3.5,3.127,66.888,66.888,0,0,0-8.683,7.134,7.838,7.838,0,0,1-3.252,2.066,2.053,2.053,0,0,1-2.282-.413,2.382,2.382,0,0,1-.524-2.471,4.9,4.9,0,0,1,1.356-2.016c1.438-1.454,2.841-2.949,4.345-4.333C1218.428,914.083,1220.09,910.439,1221.687,906.743Z" fill="#e2ac63"/>
        <g id="Group_144" data-name="Group 144">
          <g id="Group_141" data-name="Group 141">
            <path id="Path_97" data-name="Path 97" d="M1221.687,906.743c-2.067-.5-2.249-.67-2.488-2.413-1.162-8.469-9.614-55.383-5.071-72.134a30.1,30.1,0,0,1,4.9-10.1c2.2-3.058,16.711-18.417,20.806-22.365a100.305,100.305,0,0,0,9.908-11.208c.681-.017,1.363-.069,2.042-.044,3.416.127,6.832.419,10.246.386,8.348-.08,16.665.585,25,.87a6.185,6.185,0,0,1,1.187.278c2.519,5.632,4.673,11.357,4.927,17.632a42.833,42.833,0,0,1-.754,7.527,85.678,85.678,0,0,1-2.291,11.857c-.408,1.441-.186,1.709,1.367,1.474a66.163,66.163,0,0,0,6.849-1.235c7.194-1.878,14.572-3.05,21.587-5.618a7.927,7.927,0,0,0,1.861-.822,2.542,2.542,0,0,1,.933,1.53q1.065,3.61,2.117,7.223a1.714,1.714,0,0,1-.91,1.044c-6.71,4.1-13.311,8.4-20.145,12.279-6.765,3.845-13.348,8.087-20.732,10.757-3.541,1.28-7.731,2.93-11.49,1.673-8.061-2.694-6.771-17.419-7.354-24.06-.265-3.005-1.094-11.108-1.752-12.143a6.615,6.615,0,0,0-1.982,1.524,288.1,288.1,0,0,1-25.185,20.067c-3.908,2.814-3.917,2.759-4.03,7.582-.3,12.992-.2,25.981.039,38.973.106,5.74.185,11.49-.121,17.231-.089,1.668-.133,1.666-1.921,1.968C1226.689,905.736,1224.19,906.3,1221.687,906.743Z" fill="#d86f5f"/>
            <path id="Path_98" data-name="Path 98" d="M1323.345,736.582a4.424,4.424,0,0,0-.891-.367c-.519-.155-1.067-.217-1.6-.324-2.674-.535-5.352-1.048-8.02-1.611a54.366,54.366,0,0,1-10.284-3.555c-.04.029-.078.059-.12.086a46.34,46.34,0,0,1-33.309,6.828c-8.823-1.533-18.278-6-21.424-14.725l-.121-.007c-.749-.032-1.495-.161-2.245-.178a14.762,14.762,0,0,1-7.8-2.734c-2.749-1.795-5.3-3.843-7.894-5.843-2.2-1.7-3.194-1.4-4.2,1.226q-1.484,6.323-2.965,12.646c.047,1.033-1.634,10.593-1.825,14.426-.1,2.068.127,2.481,2.211,3.013a121.974,121.974,0,0,0,14.632,3.066c1.61.206,1.649.226,1.779,1.882.053.678-.864,28.007-1.486,34.823-.169,1.859-.055,2.031,1.793,2.133,11.16,2.069,58.967,3.669,61.286,2.684,1.952-.1,2.839-.952,3.028-2.879.28-2.849,1.847-23.363,1.853-24.452.006-.892.445-1.424,1.4-1.351,3.83.293,14.123-.447,15.593-2.637A133.771,133.771,0,0,1,1323.345,736.582Z" fill="#fbf3e8"/>
            <path id="Path_99" data-name="Path 99" d="M1214.854,708.709c-3.487-2.652-6.732-5.593-10.06-8.436-5.986-5.116-24.419-21.176-24.22-21.962-2.812,1.114-1.933,1.737-4.709,2.93,1.072,1.459,2.022,3,3.1,4.449,8.932,11.917,18.687,23.059,30.071,32.712,1.982,1.68,4.113,3.194,6.01,4.961a22.248,22.248,0,0,0,7.412,4.661q1.482-6.322,2.965-12.646A76.319,76.319,0,0,1,1214.854,708.709Z" fill="#ecb8af"/>
            <path id="Path_100" data-name="Path 100" d="M1379.847,737.182a2.952,2.952,0,0,1-2.248,2,95.357,95.357,0,0,1-12.48,2.427c-5.9.817-11.862.9-17.8,1.221a102.159,102.159,0,0,1-15.371.079c-2.789-.271-5.566-.679-8.348-1.025a65.952,65.952,0,0,0-.392,12.72c.129,1.263,18.67.691,33.292-2.389a119.434,119.434,0,0,0,23.168-7.892A6.518,6.518,0,0,0,1379.847,737.182Z" fill="#ecb8af"/>
            <path id="Path_101" data-name="Path 101" d="M1324.815,829.584q-1.057-3.612-2.117-7.223a2.542,2.542,0,0,0-.933-1.53,22.618,22.618,0,0,1,1.237-2.57c1.6-2.5,4.1-2.694,6.14-.537a8.05,8.05,0,0,1,2.193,3.877c.755,3.778,3.21,6.4,5.814,8.924a22.088,22.088,0,0,1,3.36,3.835,4.487,4.487,0,0,1,.752,3.307,2.139,2.139,0,0,1-2.808,1.9,3.774,3.774,0,0,1-2.213-1.382,20.259,20.259,0,0,1-1.562-2.149,9.288,9.288,0,0,0-3.288-3.3C1329.292,831.5,1327.376,829.861,1324.815,829.584Z" fill="#e2ac63"/>
            <g id="Group_140" data-name="Group 140">
              <g id="Group_139" data-name="Group 139">
                <path id="Path_102" data-name="Path 102" d="M1322.3,735.506a139.654,139.654,0,0,0-1.386,23.959c.082,2.747,4.359,2.758,4.277,0a133.284,133.284,0,0,1,1.234-22.822,2.211,2.211,0,0,0-1.494-2.631,2.154,2.154,0,0,0-2.631,1.494Z" fill="#e2ac63"/>
              </g>
            </g>
          </g>
          <g id="Group_143" data-name="Group 143">
            <g id="Group_142" data-name="Group 142">
              <path id="Path_103" data-name="Path 103" d="M1225.174,710.546a143.842,143.842,0,0,0-5.961,34.653c-.133,2.751,4.145,2.744,4.278,0a138.928,138.928,0,0,1,5.808-33.516c.8-2.64-3.329-3.769-4.125-1.137Z" fill="#e2ac63"/>
            </g>
          </g>
        </g>
        <path id="Path_104" data-name="Path 104" d="M1168.774,671.766c.725-.832,4.135,2.584,4.135,2.584s-4.163-4.732-3.727-5.457c.688-1.144,5.335,4.31,5.335,4.31s-4.908-6.066-3.663-6.834,5.422,5.788,5.422,5.788-3.547-6.409-2.37-6.879,5.434,7.973,5.434,7.973,1.048-4.667,2.012-4.514c1.627.257-.185,10.262-.185,10.262l-4.541,3.231S1168.05,672.6,1168.774,671.766Z" fill="#ecb8af"/>
        <path id="Path_105" data-name="Path 105" d="M1393.025,735.325c-.6-.926-4.461,1.969-4.461,1.969s4.8-4.091,4.467-4.87c-.518-1.231-5.9,3.506-5.9,3.506s5.722-5.3,4.6-6.243-6.19,4.956-6.19,4.956,4.423-5.838,3.325-6.47-6.515,7.117-6.515,7.117-.372-4.768-1.348-4.755c-1.647.023-1.279,10.184-1.279,10.184l-.062,3.6S1393.624,736.251,1393.025,735.325Z" fill="#ecb8af"/>
        <g id="Group_145" data-name="Group 145">
          <path id="Path_106" data-name="Path 106" d="M1283.206,720.914a16.561,16.561,0,0,0-3.378-1.262c.1.557.277,1.331.277,1.331s.312.094.419.12c4.456,1.1,6.841,6.162,4.011,10.122-1.993,2.789-6.122,3.551-8.911,5.345-5.858,3.77-9.616,12.571-17,13.572-8.582,1.164-14.877-9.628-14.5-17.09a12.441,12.441,0,0,1,5.119-9.479c3.328-2.367,6.872-1.9,10.629-1.146,2.824.569,5.809,1.1,8.394-.521a21.221,21.221,0,0,1,2.64-1.783,5.362,5.362,0,0,1,2.153-.438q.316-.629.616-1.265a6.637,6.637,0,0,0-3.682.651c-2.195,1.21-3.424,2.788-6.208,2.69-2.306-.08-4.528-.832-6.8-1.141-7.824-1.061-14.1,5.492-14.122,13.151-.016,7.451,5.77,17.218,13.937,17.7,4.094.242,7.651-2.229,10.4-5.016,3.579-3.632,6.452-7.619,11.107-10,3.792-1.937,8.033-3.219,8.637-8.1A7.588,7.588,0,0,0,1283.206,720.914Z" fill="#e2ac63"/>
        </g>
        <path id="Path_107" data-name="Path 107" d="M1288.407,713.656a1.833,1.833,0,1,1-1.7-1.959A1.834,1.834,0,0,1,1288.407,713.656Z" fill="#e2ac63"/>
        <path id="Path_108" data-name="Path 108" d="M1278.447,711.851a2.837,2.837,0,0,1-5.612-.684Z" fill="#fff"/>
        <g id="Group_147" data-name="Group 147">
          <g id="Group_146" data-name="Group 146">
            <path id="Path_109" data-name="Path 109" d="M1283.882,790.614c2.23,3.378,2.978,7.343,3.22,11.323.245,4.034.171,8.1.132,12.143-.084,8.84-.627,17.717-2.929,26.29a.624.624,0,0,0,1.2.331c2.372-8.832,2.907-17.993,2.978-27.1.033-4.288.149-8.631-.228-12.907a22.72,22.72,0,0,0-3.3-10.709c-.44-.667-1.52-.043-1.077.629Z" fill="#ecb8af"/>
          </g>
        </g>
        <g id="Group_149" data-name="Group 149">
          <g id="Group_148" data-name="Group 148">
            <path id="Path_110" data-name="Path 110" d="M1285.847,837.527q19.446-4.727,38.558-10.7c.764-.239.438-1.442-.331-1.2q-19.1,5.97-38.559,10.7c-.779.189-.449,1.391.332,1.2Z" fill="#ecb8af"/>
          </g>
        </g>
        <g id="Group_151" data-name="Group 151">
          <g id="Group_150" data-name="Group 150">
            <path id="Path_111" data-name="Path 111" d="M1263.213,820.771a42.212,42.212,0,0,0-3.632-11.719c-.345-.723-1.42-.092-1.077.63a41.1,41.1,0,0,1,3.507,11.421c.122.79,1.324.454,1.2-.332Z" fill="#ecb8af"/>
          </g>
        </g>
        <g id="Group_153" data-name="Group 153">
          <g id="Group_152" data-name="Group 152">
            <path id="Path_112" data-name="Path 112" d="M1261.073,815.621c-3.887,2.687-7.925,5.155-11.855,7.778-5.648,3.769-11.167,7.733-16.464,11.982-3.888,3.119-6.38,7.084-6.34,12.2.011,1.32.035,2.641.052,3.962l.547,41.724.17,12.921a.623.623,0,0,0,1.246,0l-.419-31.991-.266-20.257c-.063-4.822-.683-9.86,2.239-14.066a19.212,19.212,0,0,1,4.036-3.92q2.542-2.029,5.152-3.973,4.46-3.325,9.077-6.434c4.446-3.007,9.039-5.8,13.454-8.851.656-.453.033-1.534-.629-1.077Z" fill="#ecb8af"/>
          </g>
        </g>
        <line id="Line_8" data-name="Line 8" y1="16.45" x2="19.738" transform="translate(1210.202 909.26)" fill="#fbf3e8"/>
        <g id="Group_155" data-name="Group 155">
          <g id="Group_154" data-name="Group 154">
            <path id="Path_113" data-name="Path 113" d="M1324.852,817.172c1.8,1.231,2.564,3.319,3.266,5.291a23.264,23.264,0,0,0,2.711,5.694,29.782,29.782,0,0,0,4.442,4.891c1.5,1.365,4.523,3.218,4.032,5.6-.161.783,1.04,1.117,1.2.331.464-2.253-1.118-3.982-2.7-5.364a36.688,36.688,0,0,1-5.687-5.793,26.353,26.353,0,0,1-3.126-6.6,10.082,10.082,0,0,0-3.511-5.129c-.664-.455-1.288.625-.629,1.076Z" fill="#fbf3e8"/>
          </g>
        </g>
      </g>
    </g>
  </g>
</svg>
