<svg xmlns="http://www.w3.org/2000/svg" width="358.408" height="340.589" viewBox="0 0 358.408 340.589">
  <g id="Group_194" data-name="Group 194" transform="translate(-122 -224)">
    <g id="Group_157" data-name="Group 157" transform="translate(-914.731 -392.414)">
      <path id="Path_88" data-name="Path 88" d="M1285.149,704.635c-2.28-6.3-7.028-11.851-13.56-13.464-12.086-.984-18.392,2.086-24.641,8.114s-9.835,14.226-13.319,22.179-7.184,16.123-13.582,21.993c-10.92,10.018-27.759,11.593-38.389,21.919s-12.229,27.963-5.469,41.152,20.6,21.89,35.168,24.631a45.2,45.2,0,0,0,14.38.572c14.043-1.9,26-12.253,32.429-24.881s7.941-27.252,7.184-41.4c-.369-6.9-1.19-14.137,1.652-20.43,5.635-12.478,20.033-16.768,19.66-32.494A25.121,25.121,0,0,0,1285.149,704.635Z" fill="#afaff8"/>
      <g id="Group_138" data-name="Group 138">
        <g id="Group_137" data-name="Group 137">
          <path id="Path_89" data-name="Path 89" d="M1312.72,621.491c8.879-7.526,19.355.549,22.648,9.555,2.623,7.173,2.576,15.34,8.283,21.066,10.939,10.975,28.107,5.3,40.66,12.4,8.469,4.788,12.308,15.868,2.624,21.824-7.644,4.7-16.957,1.361-24.149-2.538-7.166-3.885-13.725-8.265-21.562-10.772-7.39-2.365-15.128-3.817-22.13-7.266-9.006-4.435-16.833-12.969-17.873-23.293-.952-9.452,4.442-19.01,13.548-22.121,1.339-.457.548-2.508-.789-2.051-16.712,5.709-18.621,26.628-8.669,39.2,5.9,7.454,14.2,11.418,23.123,14.107,5.014,1.511,10.129,2.7,15.05,4.505,5.263,1.935,9.976,4.8,14.789,7.625,7.3,4.3,15.957,8.679,24.694,6.583,6.391-1.533,12.3-6.936,12.17-13.886-.14-7.7-7.222-13.344-13.915-15.72-9.711-3.448-20.6-1.7-30.053-6.119-13.391-6.266-9.566-21.384-17.66-31.464-5.413-6.743-15.1-9.337-22.094-3.406-1.072.908.223,2.685,1.3,1.768Z" fill="#afaff8"/>
        </g>
      </g>
      <path id="Path_90" data-name="Path 90" d="M1321.765,779a3.26,3.26,0,1,1-3.26-3.26A3.261,3.261,0,0,1,1321.765,779Z" fill="#e2ac63"/>
      <path id="Path_91" data-name="Path 91" d="M1364.364,710.119a3.585,3.585,0,1,1-3.585-3.585A3.585,3.585,0,0,1,1364.364,710.119Z" fill="#d86f5f"/>
      <path id="Path_92" data-name="Path 92" d="M1199.641,734.943a4.456,4.456,0,1,1-4.456-4.456A4.456,4.456,0,0,1,1199.641,734.943Z" fill="#e2ac63"/>
      <circle id="Ellipse_26" data-name="Ellipse 26" cx="3.239" cy="3.239" r="3.239" transform="translate(1223.175 682.381)" fill="#d86f5f"/>
      <g id="Group_156" data-name="Group 156">
        <path id="Path_93" data-name="Path 93" d="M1269.2,703.123a18.963,18.963,0,0,1-7.034-5.508,17.014,17.014,0,0,1-3.758-11.849,7.945,7.945,0,0,1,7.151-7.531,11.971,11.971,0,0,1,6.617.962c1.249.555,2.51,1.093,3.729,1.71a4.3,4.3,0,0,0,4.8-.573,12.813,12.813,0,0,0,4.617-6.137c.961-2.634,1.893-5.28,2.9-7.9a18.232,18.232,0,0,1,5.961-8.192c4.584-3.5,10.222-3.669,14.465-.455a9.992,9.992,0,0,1,3.761,5.477c.231.859.442,1.727.745,2.561a5.475,5.475,0,0,0,7.032,3.658,14.822,14.822,0,0,0,5.333-2.989,31.962,31.962,0,0,0,3.688-3.561,31.215,31.215,0,0,1,7.736-6.356c9.025-5.053,19.518-3.426,26.731,6.038,5.8,7.607,2.522,17.74-2.414,22.236a21.8,21.8,0,0,1-6.529,4.182c-4.755,1.923-9.523,3.816-14.281,5.732-.76.307-1.505.656-2.243,1.014-3.8,1.845-5.679,4.983-6.085,9.1-.241,2.451-.424,4.909-.715,7.353a17.507,17.507,0,0,1-6.84,11.974,9.4,9.4,0,0,1-11.8.459c-1.92-1.306-3.712-2.8-5.55-4.227a26.032,26.032,0,0,0-4.1-2.714c-1.949-.993-2.8-.831-4.364.761-.72.73-1.39,1.516-2.153,2.2-3.126,2.786-6.718,2.7-9.728-.172a32.3,32.3,0,0,1-4.116-5.359c.945-1.227,1.85-2.331,3.624-2.6a3.264,3.264,0,0,0,2.634-3.037,2.126,2.126,0,0,0-.949-2.3,1.632,1.632,0,0,0-2.055.295.6.6,0,0,1-.886.073c-.861-1.4-.5-2.969,0-4.542.124-.388.287-.849-.043-1.153-.4-.366-.761.023-1.062.263-2.762,2.2-7.782.9-9.65-1.478a2.041,2.041,0,0,0-1.175-.962,7.849,7.849,0,0,0-1.669,2.444C1271.07,703.21,1270.372,703.589,1269.2,703.123Z" fill="#2b2b42"/>
        <path id="Path_94" data-name="Path 94" d="M1274.157,717.3a2.9,2.9,0,0,1-.135.37,27.8,27.8,0,0,1-3.208,5.218,2.041,2.041,0,0,1-2.009.7c-4.863-.287-17.637,1.706-22.348,2.777,3.947,5.028,20.938,12.6,27.161,13.408,12.4,1.619,23.169-2.441,29.778-5.2a208.613,208.613,0,0,0-20.958-9.278,2.266,2.266,0,0,1-1.825-1.913c-.233-1.342-.606-2.661-.831-4a6.677,6.677,0,0,1-.175-2.079,10.7,10.7,0,0,0,4.64-3.936c.06-.049.126-.09.188-.137.019.016.032.036.051.051,1.59,1.227,4.092.65,5.59-1.29s1.425-4.507-.165-5.734a3.381,3.381,0,0,0-3.081-.46c.4-5.6-2.275-10.468-6.536-11.349-4.783-.99-9.74,3.423-11.071,9.855C1268.021,710.112,1270.2,715.572,1274.157,717.3Z" fill="#ecb8af"/>
        <path id="Path_95" data-name="Path 95" d="M1268.762,700.964a5.118,5.118,0,0,0,.905,1.759,4.316,4.316,0,0,0,3.121,1.165c2.506.087,5.282-.989,6.249-3.3a3.671,3.671,0,0,0,4.729,4.02,3.685,3.685,0,0,0,2.059,5.164,7.341,7.341,0,0,1,5.9-6.764,31.957,31.957,0,0,0-3.311-11.445,12.315,12.315,0,0,0-2.7-3.775c-3.647-3.207-8.393-1.923-12.754-1.857-1.275.019-2.64-.026-3.681.831-1.514,1.246-1.964,3.7-2.08,5.533A22.161,22.161,0,0,0,1268.762,700.964Z" fill="#2b2b42"/>
        <path id="Path_96" data-name="Path 96" d="M1221.687,906.743c2.5-.438,5-1.007,7.545-.264a3.255,3.255,0,0,0,.145.8c1.142,2.542.333,4.613-1.456,6.517a25.154,25.154,0,0,1-3.5,3.127,66.888,66.888,0,0,0-8.683,7.134,7.838,7.838,0,0,1-3.252,2.066,2.053,2.053,0,0,1-2.282-.413,2.382,2.382,0,0,1-.524-2.471,4.9,4.9,0,0,1,1.356-2.016c1.438-1.454,2.841-2.949,4.345-4.333C1218.428,914.083,1220.09,910.439,1221.687,906.743Z" fill="#e2ac63"/>
        <g id="Group_144" data-name="Group 144">
          <g id="Group_141" data-name="Group 141">
            <path id="Path_97" data-name="Path 97" d="M1221.687,906.743c-2.067-.5-2.249-.67-2.488-2.413-1.162-8.469-9.614-55.383-5.071-72.134a30.1,30.1,0,0,1,4.9-10.1c2.2-3.058,16.711-18.417,20.806-22.365a100.305,100.305,0,0,0,9.908-11.208c.681-.017,1.363-.069,2.042-.044,3.416.127,6.832.419,10.246.386,8.348-.08,16.665.585,25,.87a6.185,6.185,0,0,1,1.187.278c2.519,5.632,4.673,11.357,4.927,17.632a42.833,42.833,0,0,1-.754,7.527,85.678,85.678,0,0,1-2.291,11.857c-.408,1.441-.186,1.709,1.367,1.474a66.163,66.163,0,0,0,6.849-1.235c7.194-1.878,14.572-3.05,21.587-5.618a7.927,7.927,0,0,0,1.861-.822,2.542,2.542,0,0,1,.933,1.53q1.065,3.61,2.117,7.223a1.714,1.714,0,0,1-.91,1.044c-6.71,4.1-13.311,8.4-20.145,12.279-6.765,3.845-13.348,8.087-20.732,10.757-3.541,1.28-7.731,2.93-11.49,1.673-8.061-2.694-6.771-17.419-7.354-24.06-.265-3.005-1.094-11.108-1.752-12.143a6.615,6.615,0,0,0-1.982,1.524,288.1,288.1,0,0,1-25.185,20.067c-3.908,2.814-3.917,2.759-4.03,7.582-.3,12.992-.2,25.981.039,38.973.106,5.74.185,11.49-.121,17.231-.089,1.668-.133,1.666-1.921,1.968C1226.689,905.736,1224.19,906.3,1221.687,906.743Z" fill="#d86f5f"/>
            <path id="Path_98" data-name="Path 98" d="M1323.345,736.582a4.424,4.424,0,0,0-.891-.367c-.519-.155-1.067-.217-1.6-.324-2.674-.535-5.352-1.048-8.02-1.611a54.366,54.366,0,0,1-10.284-3.555c-.04.029-.078.059-.12.086a46.34,46.34,0,0,1-33.309,6.828c-8.823-1.533-18.278-6-21.424-14.725l-.121-.007c-.749-.032-1.495-.161-2.245-.178a14.762,14.762,0,0,1-7.8-2.734c-2.749-1.795-5.3-3.843-7.894-5.843-2.2-1.7-3.194-1.4-4.2,1.226q-1.484,6.323-2.965,12.646c.047,1.033-1.634,10.593-1.825,14.426-.1,2.068.127,2.481,2.211,3.013a121.974,121.974,0,0,0,14.632,3.066c1.61.206,1.649.226,1.779,1.882.053.678-.864,28.007-1.486,34.823-.169,1.859-.055,2.031,1.793,2.133,11.16,2.069,58.967,3.669,61.286,2.684,1.952-.1,2.839-.952,3.028-2.879.28-2.849,1.847-23.363,1.853-24.452.006-.892.445-1.424,1.4-1.351,3.83.293,14.123-.447,15.593-2.637A133.771,133.771,0,0,1,1323.345,736.582Z" fill="#fbf3e8"/>
            <path id="Path_99" data-name="Path 99" d="M1214.854,708.709c-3.487-2.652-6.732-5.593-10.06-8.436-5.986-5.116-24.419-21.176-24.22-21.962-2.812,1.114-1.933,1.737-4.709,2.93,1.072,1.459,2.022,3,3.1,4.449,8.932,11.917,18.687,23.059,30.071,32.712,1.982,1.68,4.113,3.194,6.01,4.961a22.248,22.248,0,0,0,7.412,4.661q1.482-6.322,2.965-12.646A76.319,76.319,0,0,1,1214.854,708.709Z" fill="#ecb8af"/>
            <path id="Path_100" data-name="Path 100" d="M1379.847,737.182a2.952,2.952,0,0,1-2.248,2,95.357,95.357,0,0,1-12.48,2.427c-5.9.817-11.862.9-17.8,1.221a102.159,102.159,0,0,1-15.371.079c-2.789-.271-5.566-.679-8.348-1.025a65.952,65.952,0,0,0-.392,12.72c.129,1.263,18.67.691,33.292-2.389a119.434,119.434,0,0,0,23.168-7.892A6.518,6.518,0,0,0,1379.847,737.182Z" fill="#ecb8af"/>
            <path id="Path_101" data-name="Path 101" d="M1324.815,829.584q-1.057-3.612-2.117-7.223a2.542,2.542,0,0,0-.933-1.53,22.618,22.618,0,0,1,1.237-2.57c1.6-2.5,4.1-2.694,6.14-.537a8.05,8.05,0,0,1,2.193,3.877c.755,3.778,3.21,6.4,5.814,8.924a22.088,22.088,0,0,1,3.36,3.835,4.487,4.487,0,0,1,.752,3.307,2.139,2.139,0,0,1-2.808,1.9,3.774,3.774,0,0,1-2.213-1.382,20.259,20.259,0,0,1-1.562-2.149,9.288,9.288,0,0,0-3.288-3.3C1329.292,831.5,1327.376,829.861,1324.815,829.584Z" fill="#e2ac63"/>
            <g id="Group_140" data-name="Group 140">
              <g id="Group_139" data-name="Group 139">
                <path id="Path_102" data-name="Path 102" d="M1322.3,735.506a139.654,139.654,0,0,0-1.386,23.959c.082,2.747,4.359,2.758,4.277,0a133.284,133.284,0,0,1,1.234-22.822,2.211,2.211,0,0,0-1.494-2.631,2.154,2.154,0,0,0-2.631,1.494Z" fill="#e2ac63"/>
              </g>
            </g>
          </g>
          <g id="Group_143" data-name="Group 143">
            <g id="Group_142" data-name="Group 142">
              <path id="Path_103" data-name="Path 103" d="M1225.174,710.546a143.842,143.842,0,0,0-5.961,34.653c-.133,2.751,4.145,2.744,4.278,0a138.928,138.928,0,0,1,5.808-33.516c.8-2.64-3.329-3.769-4.125-1.137Z" fill="#e2ac63"/>
            </g>
          </g>
        </g>
        <path id="Path_104" data-name="Path 104" d="M1168.774,671.766c.725-.832,4.135,2.584,4.135,2.584s-4.163-4.732-3.727-5.457c.688-1.144,5.335,4.31,5.335,4.31s-4.908-6.066-3.663-6.834,5.422,5.788,5.422,5.788-3.547-6.409-2.37-6.879,5.434,7.973,5.434,7.973,1.048-4.667,2.012-4.514c1.627.257-.185,10.262-.185,10.262l-4.541,3.231S1168.05,672.6,1168.774,671.766Z" fill="#ecb8af"/>
        <path id="Path_105" data-name="Path 105" d="M1393.025,735.325c-.6-.926-4.461,1.969-4.461,1.969s4.8-4.091,4.467-4.87c-.518-1.231-5.9,3.506-5.9,3.506s5.722-5.3,4.6-6.243-6.19,4.956-6.19,4.956,4.423-5.838,3.325-6.47-6.515,7.117-6.515,7.117-.372-4.768-1.348-4.755c-1.647.023-1.279,10.184-1.279,10.184l-.062,3.6S1393.624,736.251,1393.025,735.325Z" fill="#ecb8af"/>
        <g id="Group_145" data-name="Group 145">
          <path id="Path_106" data-name="Path 106" d="M1283.206,720.914a16.561,16.561,0,0,0-3.378-1.262c.1.557.277,1.331.277,1.331s.312.094.419.12c4.456,1.1,6.841,6.162,4.011,10.122-1.993,2.789-6.122,3.551-8.911,5.345-5.858,3.77-9.616,12.571-17,13.572-8.582,1.164-14.877-9.628-14.5-17.09a12.441,12.441,0,0,1,5.119-9.479c3.328-2.367,6.872-1.9,10.629-1.146,2.824.569,5.809,1.1,8.394-.521a21.221,21.221,0,0,1,2.64-1.783,5.362,5.362,0,0,1,2.153-.438q.316-.629.616-1.265a6.637,6.637,0,0,0-3.682.651c-2.195,1.21-3.424,2.788-6.208,2.69-2.306-.08-4.528-.832-6.8-1.141-7.824-1.061-14.1,5.492-14.122,13.151-.016,7.451,5.77,17.218,13.937,17.7,4.094.242,7.651-2.229,10.4-5.016,3.579-3.632,6.452-7.619,11.107-10,3.792-1.937,8.033-3.219,8.637-8.1A7.588,7.588,0,0,0,1283.206,720.914Z" fill="#e2ac63"/>
        </g>
        <path id="Path_107" data-name="Path 107" d="M1288.407,713.656a1.833,1.833,0,1,1-1.7-1.959A1.834,1.834,0,0,1,1288.407,713.656Z" fill="#e2ac63"/>
        <path id="Path_108" data-name="Path 108" d="M1278.447,711.851a2.837,2.837,0,0,1-5.612-.684Z" fill="#fff"/>
        <g id="Group_147" data-name="Group 147">
          <g id="Group_146" data-name="Group 146">
            <path id="Path_109" data-name="Path 109" d="M1283.882,790.614c2.23,3.378,2.978,7.343,3.22,11.323.245,4.034.171,8.1.132,12.143-.084,8.84-.627,17.717-2.929,26.29a.624.624,0,0,0,1.2.331c2.372-8.832,2.907-17.993,2.978-27.1.033-4.288.149-8.631-.228-12.907a22.72,22.72,0,0,0-3.3-10.709c-.44-.667-1.52-.043-1.077.629Z" fill="#ecb8af"/>
          </g>
        </g>
        <g id="Group_149" data-name="Group 149">
          <g id="Group_148" data-name="Group 148">
            <path id="Path_110" data-name="Path 110" d="M1285.847,837.527q19.446-4.727,38.558-10.7c.764-.239.438-1.442-.331-1.2q-19.1,5.97-38.559,10.7c-.779.189-.449,1.391.332,1.2Z" fill="#ecb8af"/>
          </g>
        </g>
        <g id="Group_151" data-name="Group 151">
          <g id="Group_150" data-name="Group 150">
            <path id="Path_111" data-name="Path 111" d="M1263.213,820.771a42.212,42.212,0,0,0-3.632-11.719c-.345-.723-1.42-.092-1.077.63a41.1,41.1,0,0,1,3.507,11.421c.122.79,1.324.454,1.2-.332Z" fill="#ecb8af"/>
          </g>
        </g>
        <g id="Group_153" data-name="Group 153">
          <g id="Group_152" data-name="Group 152">
            <path id="Path_112" data-name="Path 112" d="M1261.073,815.621c-3.887,2.687-7.925,5.155-11.855,7.778-5.648,3.769-11.167,7.733-16.464,11.982-3.888,3.119-6.38,7.084-6.34,12.2.011,1.32.035,2.641.052,3.962l.547,41.724.17,12.921a.623.623,0,0,0,1.246,0l-.419-31.991-.266-20.257c-.063-4.822-.683-9.86,2.239-14.066a19.212,19.212,0,0,1,4.036-3.92q2.542-2.029,5.152-3.973,4.46-3.325,9.077-6.434c4.446-3.007,9.039-5.8,13.454-8.851.656-.453.033-1.534-.629-1.077Z" fill="#ecb8af"/>
          </g>
        </g>
        <line id="Line_8" data-name="Line 8" y1="16.45" x2="19.738" transform="translate(1210.202 909.26)" fill="#fbf3e8"/>
        <g id="Group_155" data-name="Group 155">
          <g id="Group_154" data-name="Group 154">
            <path id="Path_113" data-name="Path 113" d="M1324.852,817.172c1.8,1.231,2.564,3.319,3.266,5.291a23.264,23.264,0,0,0,2.711,5.694,29.782,29.782,0,0,0,4.442,4.891c1.5,1.365,4.523,3.218,4.032,5.6-.161.783,1.04,1.117,1.2.331.464-2.253-1.118-3.982-2.7-5.364a36.688,36.688,0,0,1-5.687-5.793,26.353,26.353,0,0,1-3.126-6.6,10.082,10.082,0,0,0-3.511-5.129c-.664-.455-1.288.625-.629,1.076Z" fill="#fbf3e8"/>
          </g>
        </g>
      </g>
    </g>
    <g id="Group_190" data-name="Group 190" transform="translate(-742.313 -319.888)">
      <path id="Path_114" data-name="Path 114" d="M977.33,614.431c-2.281-6.305-7.028-11.851-13.56-13.464-12.086-.983-18.392,2.086-24.642,8.114s-9.835,14.226-13.318,22.179-7.184,16.124-13.582,21.993c-10.921,10.018-27.76,11.594-38.39,21.919s-12.228,27.963-5.469,41.153,20.6,21.89,35.169,24.631a45.221,45.221,0,0,0,14.38.571c14.043-1.9,26-12.252,32.429-24.881s7.94-27.252,7.184-41.4c-.369-6.9-1.19-14.137,1.652-20.431,5.634-12.478,20.033-16.768,19.66-32.493A25.156,25.156,0,0,0,977.33,614.431Z" fill="#afaff8"/>
      <g id="Group_159" data-name="Group 159">
        <g id="Group_158" data-name="Group 158">
          <path id="Path_115" data-name="Path 115" d="M1032.2,753.8c-12.415-7.2-27.346-6.26-39.831.3-13.048,6.857-20.333,18.3-25.873,31.518-6.179,14.738-12.013,32.413-29.6,36.207-13.6,2.934-25.852,8.455-34.233,20.142-7.277,10.148-7.484,23.844,2.81,32.155,9.322,7.527,23.029,5.857,33.457,1.829a51.164,51.164,0,0,0,14.838-8.616c5.959-5.088,9.556-12.151,14.1-18.4,10.976-15.11,28.3-18.7,44.9-24.679,14.738-5.307,29.889-14.515,35.381-30.043s-2.533-32-15.943-40.412c-1.2-.754-2.306,1.147-1.109,1.9,13.482,8.455,20.785,25.306,13.937,40.4-6.169,13.6-20.06,21.5-33.548,26.286-12.31,4.366-25.62,7.284-36.133,15.47-10.873,8.465-15.073,22.625-26.489,30.48-9.57,6.584-23.342,11.182-34.877,7.742a20.347,20.347,0,0,1-13.944-14.043c-1.8-6.742.572-13.463,4.524-18.954a47.774,47.774,0,0,1,15.072-13.176c6.2-3.556,12.539-4.63,19.376-6.3,12.051-2.943,19.031-13.258,23.93-23.941,6.009-13.1,9.906-27.405,21.138-37.23,12.813-11.209,31.751-15.579,47.014-6.734A1.1,1.1,0,0,0,1032.2,753.8Z" fill="#afaff8"/>
        </g>
      </g>
      <path id="Path_116" data-name="Path 116" d="M1014.9,640.9a2.822,2.822,0,1,1-2.822-2.822A2.821,2.821,0,0,1,1014.9,640.9Z" fill="#d86f5f"/>
      <path id="Path_117" data-name="Path 117" d="M1039.09,728.154a2.822,2.822,0,1,1-2.822-2.821A2.822,2.822,0,0,1,1039.09,728.154Z" fill="#d86f5f"/>
      <path id="Path_118" data-name="Path 118" d="M883.764,770.622a2.822,2.822,0,1,1-2.822-2.822A2.822,2.822,0,0,1,883.764,770.622Z" fill="#e2ac63"/>
      <g id="Group_189" data-name="Group 189">
        <g id="Group_183" data-name="Group 183">
          <path id="Path_119" data-name="Path 119" d="M991.595,847.712c.564-1.82,1.277-3.589,1.686-5.464.972-4.445,1.05-8.8-1.051-12.983.556-.256,1.106-.524,1.667-.769a5.79,5.79,0,0,1,6.746,1.381,8.193,8.193,0,0,1,2.433,6.889c-.2,2.04-.366,4.084-.611,6.117a80.092,80.092,0,0,0-.43,12.871,30.682,30.682,0,0,1-.17,3.271,3.771,3.771,0,0,1-.454,1.563c-.873,1.6-2.254,1.955-3.718.886a9.207,9.207,0,0,1-3.423-5.657,51.334,51.334,0,0,0-1.705-6.325A5.512,5.512,0,0,0,991.595,847.712Z" fill="#9bf4ab"/>
          <g id="Group_160" data-name="Group 160">
            <path id="Path_120" data-name="Path 120" d="M1040.416,647.036a14.062,14.062,0,0,0-5.514-3.191,18.944,18.944,0,0,0-13.111.348c-6.53,2.693-11.032,8.85-17.287,12.131-6.118,3.208-13.608,3.505-19.21,7.547-3.322,2.4-5.837,6.024-9.668,7.477a15.738,15.738,0,0,1-8.149.379c-7.476-1.247-15.058-5.325-17.915-12.346-1.95-4.792-1.524-10.458-4.275-14.84-1.734-2.762-4.619-4.8-5.748-7.857-1.6-4.331.817-8.984,1.7-13.516a19.472,19.472,0,0,0-3.325-15.155,17.652,17.652,0,0,0-13.676-7.113s-3.844-.407-9.729,2.833c-7.3,5.044-9.767,15.071-8.221,23.808s6.365,16.5,11.2,23.94,9.876,15,11.965,23.624a6.927,6.927,0,0,1,.048,4.2c-.6,1.481-2.046,2.406-3.311,3.384-11.175,8.634-11.633,25.437-19.934,36.862-2.69,3.7-6.17,6.776-8.872,10.47-3.289,4.5-5.148,10.28-2.617,15.579a13.106,13.106,0,0,0,11.611,7.393c.194,0,.388-.009.582-.022,1.991-.127,3.936-.727,5.93-.761a21.023,21.023,0,0,1,5.885,1.033A222.082,222.082,0,0,1,942,760.574c7.886,3.139,15.443,7.192,23.635,9.415s17.406,2.417,24.708-1.911c6.294-3.73,10.462-10.538,11.751-17.74a36.519,36.519,0,0,0-3.163-21.38c-2.2-4.825-5.25-9.283-6.864-14.336s-1.508-11.129,2.077-15.038c2.052-2.237,4.941-3.463,7.583-4.957a38,38,0,0,0,10.3-8.528,49.742,49.742,0,0,1,4.779-5.466c3.377-2.978,7.873-4.277,11.834-6.418a31.108,31.108,0,0,0,11.5-10.8c2.762-4.406,4.951-9.785,1.774-14.583A11.162,11.162,0,0,0,1040.416,647.036Z" fill="#9bf4ab"/>
            <path id="Path_121" data-name="Path 121" d="M991.595,847.712c-.335.511-.687,1.012-1,1.534a14.71,14.71,0,0,1-16.9,6.767,13.908,13.908,0,0,1-4-1.535c-2.293-1.487-4.51-1.126-6.806-.2-2.233.58-4.461,1.182-6.7,1.725a1.15,1.15,0,0,0-.977,1.315,17.469,17.469,0,0,1-2.749,9.248c-.057.038-.132.064-.168.116-4.813,7.214-14.821,6.164-20.211,1.123-1.645-1.539-3.156-3.222-4.746-4.821-1.156-1.164-2.306-2.339-3.521-3.438a37.76,37.76,0,0,0-9.406-6.49,130.49,130.49,0,0,1-18.289-10.1A41.683,41.683,0,0,1,885.2,832.249c-4.326-6.185-5.174-12.947-3.366-20.155a39.131,39.131,0,0,1,5.837-12.581c2.391-3.5,4.73-7.045,7.324-10.39a124.29,124.29,0,0,0,13.287-21.867c2.31-4.734,4.712-9.408,7.375-13.951.24-.41.425-.853.635-1.281a40.245,40.245,0,0,0,4.177-7.726c1.15-2.624,2.208-5.3,4.137-7.495.587.468,1.179.929,1.759,1.4a42.825,42.825,0,0,0,14.755,8.2c7.709,2.322,15.5,4.351,23.561,5.055a3.673,3.673,0,0,1,2.509.673,4.464,4.464,0,0,0,0,.809c1.065,5.862,2.184,11.716,2.681,17.664.316,8.176-1.839,15.841-4.9,23.3-1.167,2.843-2.6,5.57-3.834,8.392a17.337,17.337,0,0,0-1.344,9.82,43.108,43.108,0,0,1,.079,14.5c-.215,1.191-.089,1.192,1.181,1.145a53.022,53.022,0,0,0,15.872-2.966,17.606,17.606,0,0,1,4.838-.832,10.838,10.838,0,0,1,9.785,4.547c.206.267.453.5.681.751,2.1,4.186,2.023,8.538,1.051,12.983C992.872,844.123,992.159,845.892,991.595,847.712ZM924.55,805.836c-1.417,1.368-2.43,2.37-3.47,3.344-.995.933-2.051,1.8-3.02,2.763a3.3,3.3,0,0,0-.027,5.12c1.453,1.441,2.894,2.9,4.352,4.332,1.346,1.328,1.61,1.277,2.325-.448a2.192,2.192,0,0,0,.2-.978A85.787,85.787,0,0,1,924.55,805.836Z" fill="#d86f5f"/>
            <path id="Path_122" data-name="Path 122" d="M977.709,662.686a1.787,1.787,0,0,0-1.284-1.411.8.8,0,0,0-.426,0,1,1,0,0,0-.473.446,7.873,7.873,0,0,1-1.484,2.088c-.675.532-1.854.564-2.242-.2-.088-.174-.16-.4-.351-.436a.5.5,0,0,0-.393.18,41.747,41.747,0,0,1-8.249,5.769c-.107.057-.228.135-.234.257,0,.107.086.191.154.274.372.452.176,1.126-.053,1.664-.669,1.575-1.692,3.254-3.369,3.592a1.865,1.865,0,0,0-.755.23,1.289,1.289,0,0,0-.411.683A8.208,8.208,0,0,0,960.393,684a5.426,5.426,0,0,0,4.346,1.6,5.76,5.76,0,0,0,2.757-1.251c2.062-1.62,5.047-4.708,3.191-6.428-3.064-2.841-1.035-9.627,2.635-11.473a5.774,5.774,0,0,1,1.418-.378,3.92,3.92,0,0,0,2.838-1.927A2.267,2.267,0,0,0,977.709,662.686Z" fill="#d86f5f"/>
            <path id="Path_123" data-name="Path 123" d="M952.459,866.569a17.469,17.469,0,0,0,2.749-9.248,1.15,1.15,0,0,1,.977-1.315c2.242-.543,4.47-1.145,6.7-1.725,2.056,1.586,2.556,3.84,2.443,6.225a67.769,67.769,0,0,1-.807,6.906,55.006,55.006,0,0,0-.3,7.55c-.018,1.635.123,3.27.148,4.906a4.909,4.909,0,0,1-.845,3.109,2.155,2.155,0,0,1-3.212.57,7.714,7.714,0,0,1-3.178-5.1,25.421,25.421,0,0,0-4.489-11.089A2.124,2.124,0,0,1,952.459,866.569Z" fill="#9bf4ab"/>
            <path id="Path_124" data-name="Path 124" d="M979.06,700.078a4.221,4.221,0,0,0-.049-4.624,18.176,18.176,0,0,1-2.505-8.14,50.654,50.654,0,0,1,.149-6.128c.078-2.032-.67-2.872-2.7-3.085-1.084-.114-2.178-.119-3.267-.172a8.381,8.381,0,0,1-3.65,6.773,4.794,4.794,0,0,1-5.582.108c-3.4-2.2-4.549-6.941-2.962-9.724-2.354-1.012-3.632-.7-5.228,1.558a61.576,61.576,0,0,1-10.464,11.2l-.049.041q-.3.225-.572.476c-.215.179-.429.36-.645.537.01.033.016.066.025.1a5.347,5.347,0,0,0-1.384,3.075c-.454,7.083,1.147,14.774-2.464,20.884-1.74,2.945-4.5,5.118-7.1,7.345s-5.178,4.7-6.347,7.916a8.476,8.476,0,0,0,.959,7.856,11.117,11.117,0,0,0,.177,1.373c.321.254.644.507.96.766a42.825,42.825,0,0,0,14.755,8.2c7.709,2.322,15.5,4.351,23.561,5.055a3.673,3.673,0,0,1,2.509.673,6.231,6.231,0,0,0,3.042-3.454,22.57,22.57,0,0,0,1.7-10.216,88.32,88.32,0,0,1,.1-16.558,50.409,50.409,0,0,1,2.23-11.209A66.945,66.945,0,0,1,979.06,700.078Zm-47.91,28.1c-.427.322-.894.648-1.371.985a30.539,30.539,0,0,1,3.158-2.49A22.826,22.826,0,0,1,931.15,728.177Z" fill="#2b2b42"/>
            <path id="Path_125" data-name="Path 125" d="M974.671,661.034c-1.429,6.508-5.875,11.093-9.914,10.175-5.772-1.313-6.168-6.886-4.738-13.394s5.869-11.063,9.915-10.175S976.1,654.526,974.671,661.034Z" fill="#d86f5f"/>
            <path id="Path_126" data-name="Path 126" d="M964.835,650.67c-1.494-.484-2.992-.953-4.48-1.455-7.235-2.444-12.158-7.09-13.358-14.846-.866-5.6.56-10.624,5.139-14.355a9.988,9.988,0,0,1,8.619-2.286c6.581,1.354,8.287,6.756,7.624,11.274a27.083,27.083,0,0,1-1.89,6.265,2.747,2.747,0,0,0-.328,1.563c.715,4.286,2.291,8.008,6.378,10.194a12.541,12.541,0,0,1,3,2.132,3.823,3.823,0,0,1,1.19,3.729,5.836,5.836,0,0,0,.074,2.807c.468,1.961-.327,3.761-.977,5.559a9.359,9.359,0,0,1-1.747,2.484c-.955.821-1.633.742-2.391-.282a4.669,4.669,0,0,1-.884-3.468,9.924,9.924,0,0,1,2.165-4.973c1.026-1.3.993-1.421-.524-2.159A33.728,33.728,0,0,0,964.835,650.67Z" fill="#2b2b42"/>
            <path id="Path_127" data-name="Path 127" d="M978.476,664.084c-1.21,2.4-3.267,3.807-4.594,3.139s-1.423-3.158-.213-5.56,3.266-3.808,4.594-3.139S979.686,661.682,978.476,664.084Z" fill="#d86f5f"/>
            <path id="Path_128" data-name="Path 128" d="M962,658.561c.321,2.391-.5,4.474-1.837,4.654s-2.679-1.613-3-4.005.5-4.474,1.836-4.654S961.681,656.169,962,658.561Z" fill="#d86f5f"/>
          </g>
          <path id="Path_129" data-name="Path 129" d="M967.579,663.6a2.837,2.837,0,0,1-5.369-1.773Z" fill="#fff"/>
          <path id="Path_130" data-name="Path 130" d="M1047,642.3c-.669-.888-4.343,2.3-4.343,2.3s4.526-4.457,4.14-5.217c-.609-1.2-5.674,3.949-5.674,3.949s5.371-5.745,4.174-6.607-5.867,5.428-5.867,5.428,4.027-6.188,2.878-6.745-6.037,7.624-6.037,7.624-.718-4.766-1.7-4.682c-1.654.141-.553,10.33-.553,10.33l4.333,3.575S1047.671,643.191,1047,642.3Z" fill="#d86f5f"/>
          <path id="Path_131" data-name="Path 131" d="M910.128,595.809c.82-.75,3.846,3.059,3.846,3.059s-3.629-5.213-3.11-5.889c.819-1.068,4.851,4.924,4.851,4.924s-4.224-6.634-2.889-7.261,4.769,6.414,4.769,6.414-2.821-6.823-1.589-7.159,4.534,8.6,4.534,8.6,1.581-4.554,2.529-4.291c1.6.442-1.355,10.255-1.355,10.255l-4.916,2.718S909.308,596.559,910.128,595.809Z" fill="#d86f5f"/>
          <g id="Group_161" data-name="Group 161">
            <path id="Path_132" data-name="Path 132" d="M1032.14,649.475c2.126,2.226,4.288,3.84,7.42,4.206,1.591.185,1.578-2.31,0-2.494-2.423-.282-4.045-1.787-5.657-3.475-1.11-1.163-2.871.6-1.763,1.763Z" fill="#f0fef3"/>
          </g>
          <g id="Group_162" data-name="Group 162">
            <path id="Path_133" data-name="Path 133" d="M924.259,603.859a11.47,11.47,0,0,0-9.812,4.684c-.97,1.278,1.194,2.521,2.153,1.259a8.9,8.9,0,0,1,7.659-3.449c1.6.08,1.6-2.413,0-2.494Z" fill="#f0fef3"/>
          </g>
          <g id="Group_163" data-name="Group 163">
            <path id="Path_134" data-name="Path 134" d="M955.869,670.879a42.04,42.04,0,0,1-20.316,19.439c-7.3,3.29-16.774,6.369-17.908,15.6-.1.795,1.15.788,1.247,0,1.275-10.386,14.189-12.364,21.613-16.744a43.01,43.01,0,0,0,16.44-17.667c.361-.714-.714-1.346-1.076-.629Z" fill="#f0fef3"/>
          </g>
          <g id="Group_164" data-name="Group 164">
            <path id="Path_135" data-name="Path 135" d="M917.584,709.789a26.178,26.178,0,0,1-2.543,6.028.624.624,0,0,0,1.076.629,27.518,27.518,0,0,0,2.669-6.325.624.624,0,0,0-1.2-.332Z" fill="#f0fef3"/>
          </g>
          <g id="Group_165" data-name="Group 165">
            <path id="Path_136" data-name="Path 136" d="M976.349,675.542c1.168,3.711-.224,7.319-.19,11.075a21.511,21.511,0,0,0,1.915,8.023c2.265,5.44,5.843,10.706,5.112,16.856-.094.8,1.153.788,1.247,0,.69-5.815-2.351-10.9-4.642-16.01-1.384-3.088-2.52-6.311-2.365-9.744.162-3.592,1.241-6.986.125-10.531-.241-.763-1.444-.437-1.2.331Z" fill="#f0fef3"/>
          </g>
          <g id="Group_166" data-name="Group 166">
            <path id="Path_137" data-name="Path 137" d="M984.461,718.635a11.164,11.164,0,0,0,.615,4.728c.267.75,1.472.427,1.2-.332a10.318,10.318,0,0,1-.571-4.4c.067-.8-1.18-.795-1.246,0Z" fill="#f0fef3"/>
          </g>
          <g id="Group_167" data-name="Group 167">
            <path id="Path_138" data-name="Path 138" d="M973.616,767.426c6.312-.108,13.369-3.7,15.634-9.849,2.57-6.971-.327-14.179-3.044-20.618-.311-.736-1.385-.1-1.077.63,2.411,5.71,5,11.982,3.356,18.264-1.677,6.4-8.505,10.218-14.869,10.326a.624.624,0,0,0,0,1.247Z" fill="#f0fef3"/>
          </g>
          <g id="Group_168" data-name="Group 168">
            <path id="Path_139" data-name="Path 139" d="M912.709,724.321c-4.73,3.384-8.54,8.723-9.142,14.638-.256,2.513.385,5.3,2.634,6.757,2.773,1.8,6.313-.409,8.961,1.462.656.463,1.28-.617.629-1.077-1.5-1.059-3.056-.974-4.827-.861-1.721.111-3.539.187-4.838-1.2-1.356-1.443-1.511-3.569-1.248-5.424a20.285,20.285,0,0,1,8.46-13.223c.647-.462.025-1.544-.629-1.076Z" fill="#f0fef3"/>
          </g>
          <g id="Group_169" data-name="Group 169">
            <path id="Path_140" data-name="Path 140" d="M930.133,680.184a43.617,43.617,0,0,0,18.5-28.392c.14-.784-1.061-1.121-1.2-.331A42.393,42.393,0,0,1,929.5,679.108c-.661.447-.038,1.528.629,1.076Z" fill="#f0fef3"/>
          </g>
          <g id="Group_170" data-name="Group 170">
            <path id="Path_141" data-name="Path 141" d="M986.121,662.505a48.618,48.618,0,0,0,1.18,21.73c1.491,5.308,3.274,11.333,8.407,14.2.7.392,1.331-.685.63-1.076-5.067-2.829-6.7-9.151-8.089-14.379a46.587,46.587,0,0,1-.926-20.142c.137-.785-1.064-1.122-1.2-.332Z" fill="#f0fef3"/>
          </g>
          <g id="Group_171" data-name="Group 171">
            <path id="Path_142" data-name="Path 142" d="M954.179,677.8a10.537,10.537,0,0,0,6.548,11.371c5.241,2.009,8.876-.876,11.322-5.294.389-.7-.687-1.332-1.076-.629-.914,1.65-1.874,3.467-3.54,4.483a7.441,7.441,0,0,1-6.908,0,9.367,9.367,0,0,1-5.1-9.935c.1-.794-1.145-.786-1.246,0Z" fill="#fff"/>
          </g>
          <g id="Group_172" data-name="Group 172">
            <path id="Path_143" data-name="Path 143" d="M925.618,736.829c-1.368-4.1,4.163-6.319,6.8-8.252a54.95,54.95,0,0,0,16.391-19.1c.372-.71-.7-1.34-1.077-.629a54.735,54.735,0,0,1-12.9,16.244c-2.459,2.1-5.217,3.672-7.772,5.616-2.086,1.588-3.542,3.787-2.651,6.454.253.757,1.457.433,1.2-.331Z" fill="#fff"/>
          </g>
          <g id="Group_173" data-name="Group 173">
            <path id="Path_144" data-name="Path 144" d="M950.005,701.422a5.643,5.643,0,0,1-.993,3.342c-.449.667.631,1.292,1.077.629a6.815,6.815,0,0,0,1.162-3.971.623.623,0,0,0-1.246,0Z" fill="#fff"/>
          </g>
          <g id="Group_174" data-name="Group 174">
            <path id="Path_145" data-name="Path 145" d="M959.986,748.979c6.252,13.643,2.561,28.994-4.809,41.385-1.3,2.18-3.749,4.612-3.862,7.263-.124,2.928,1.36,6.2,1.809,9.1,1.113,7.193.371,15.03-5.106,20.348a.629.629,0,0,0,.275,1.042,6.986,6.986,0,0,1,4.937,7.456.628.628,0,0,0,.938.538,19.445,19.445,0,0,1,20.567.7.636.636,0,0,0,.756-.1,15.115,15.115,0,0,1,17.42-1.56.624.624,0,0,0,.63-1.076,16.255,16.255,0,0,0-10.031-2.155,16.491,16.491,0,0,0-4.508,1.15c-1.411.584-3.211,2.443-4.577,2.051-1.665-.477-3.19-1.644-4.921-2.129a20.981,20.981,0,0,0-5.325-.765,20.56,20.56,0,0,0-10.64,2.808l.938.538a8.225,8.225,0,0,0-5.853-8.658q.138.52.275,1.042c4.643-4.508,6.242-10.974,5.9-17.289a74.36,74.36,0,0,0-1.9-11.034c-.523-2.521.437-4.036,1.742-6.046q1.548-2.382,2.916-4.876c6.749-12.339,9.553-27.176,3.509-40.366-.334-.728-1.409-.095-1.077.63Z" fill="#fff"/>
          </g>
          <g id="Group_175" data-name="Group 175">
            <path id="Path_146" data-name="Path 146" d="M925.061,805.188c-3.171-3.674-6.363-7.609-5.8-12.774.086-.8-1.161-.79-1.246,0-.591,5.467,2.8,9.751,6.169,13.656.525.608,1.4-.277.882-.882Z" fill="#fff"/>
          </g>
          <g id="Group_176" data-name="Group 176">
            <path id="Path_147" data-name="Path 147" d="M924.485,805.392c-1.342,11.413-2.13,23.133,5.058,32.876.471.638,1.553.017,1.076-.63-7.062-9.572-6.2-21.058-4.887-32.246.093-.8-1.154-.789-1.247,0Z" fill="#fff"/>
          </g>
          <g id="Group_177" data-name="Group 177">
            <path id="Path_148" data-name="Path 148" d="M936.888,846.093a24.511,24.511,0,0,0,5.943,5.5,36.073,36.073,0,0,0,8.2,2.97c2.522.728,5.213,1.7,7.876,1.247,2.738-.465,7.411-3.267,9.929-1.3.625.488,1.513-.388.881-.882-1.7-1.331-3.592-.96-5.59-.537-3.49.739-6.166,2.015-9.807,1.095a70.934,70.934,0,0,1-8.79-2.692c-3.259-1.3-5.515-3.684-7.759-6.28-.526-.608-1.4.277-.881.882Z" fill="#fff"/>
          </g>
          <g id="Group_178" data-name="Group 178">
            <path id="Path_149" data-name="Path 149" d="M919.367,799.2a77.229,77.229,0,0,1-13.206,13.256.628.628,0,0,0-.1.755,23.758,23.758,0,0,1,1.9,17.133.624.624,0,0,0,1.2.331,25.09,25.09,0,0,0,.777-8.75c-.266-2.824-1.4-5.182-2.071-7.864-.276-1.106-.421-.839.5-1.786.49-.5,1.1-.913,1.633-1.371q1.774-1.533,3.451-3.175a77.432,77.432,0,0,0,6.787-7.647c.488-.626-.388-1.514-.881-.882Z" fill="#fff"/>
          </g>
          <g id="Group_179" data-name="Group 179">
            <path id="Path_150" data-name="Path 150" d="M909.206,832.1c18.984,2.761,23.079,33.316,44.288,30.087.791-.12.455-1.322-.331-1.2-11.11,1.691-18.6-8.379-24.553-16.08-4.9-6.333-10.722-12.792-19.073-14.007-.784-.114-1.123,1.087-.331,1.2Z" fill="#fff"/>
          </g>
          <g id="Group_180" data-name="Group 180">
            <path id="Path_151" data-name="Path 151" d="M935.652,744.216c-2.737-5.577-8.636-11.881-15.295-12.165-3.041-.13-5.385,1.54-7.687,3.306a11.875,11.875,0,0,1-4.58,2.6c-2.646.545-5.282-.83-7.565-1.974-1.431-.717-2.7,1.433-1.259,2.152,2.918,1.463,6.142,2.977,9.487,2.226,2.776-.623,4.768-2.71,7.039-4.255,6.961-4.738,14.789,3.419,17.707,9.364.707,1.44,2.858.178,2.153-1.258Z" fill="#ecb8af"/>
          </g>
          <g id="Group_182" data-name="Group 182">
            <g id="Group_181" data-name="Group 181">
              <path id="Path_152" data-name="Path 152" d="M946.237,746.223a5.057,5.057,0,0,0-7.619.081c-2.957,3.25-3.645,7.921-5.84,11.614-1.162,1.953-2.9,3.932-5.183,4.529-2.435.637-4.759-.766-7.133-1.094a7.838,7.838,0,0,0-8.026,4.217c-.753,1.416,1.4,2.677,2.152,1.258a5.344,5.344,0,0,1,4.353-3.042c2.07-.168,4.022.94,6.043,1.232a8.631,8.631,0,0,0,6.923-2.173,18.282,18.282,0,0,0,4.724-7.235c.981-2.367,3.962-11.735,7.843-7.624,1.1,1.169,2.864-.6,1.763-1.763Z" fill="#ecb8af"/>
            </g>
          </g>
        </g>
        <g id="Group_184" data-name="Group 184">
          <path id="Path_153" data-name="Path 153" d="M955.158,747.719a38.206,38.206,0,0,1-4.873,38.465c-1.884,2.471-3.529,4.933-3.6,8.144-.084,3.818.923,7.708,1.123,11.53.4,7.681-.821,15.726-6.292,21.518a1.26,1.26,0,0,0,.55,2.083,9.939,9.939,0,0,1,7.03,10.162c-.092,1.6,2.4,1.6,2.493,0a12.443,12.443,0,0,0-8.86-12.566q.274,1.043.55,2.084c5.1-5.4,7.025-12.69,7.1-19.981.045-4.409-.732-8.689-1.113-13.06-.4-4.571,2.139-7.06,4.564-10.539a40.505,40.505,0,0,0,3.479-39.1c-.649-1.464-2.8-.2-2.153,1.258Z" fill="#fff"/>
        </g>
        <g id="Group_185" data-name="Group 185">
          <path id="Path_154" data-name="Path 154" d="M951.781,841.006a25,25,0,0,1,24.747,4.037c1.225,1.019,3-.735,1.763-1.763a27.484,27.484,0,0,0-27.172-4.678c-1.487.562-.842,2.973.662,2.4Z" fill="#fff"/>
        </g>
        <g id="Group_186" data-name="Group 186">
          <path id="Path_155" data-name="Path 155" d="M979.235,844.288c.741-2.214,3.448-2.745,5.486-3.075a22.566,22.566,0,0,1,9.249.151,1.248,1.248,0,0,0,.663-2.4,25.513,25.513,0,0,0-11.808.077c-2.662.6-5.084,1.87-5.994,4.589-.511,1.524,1.9,2.178,2.4.662Z" fill="#fff"/>
        </g>
        <g id="Group_187" data-name="Group 187">
          <path id="Path_156" data-name="Path 156" d="M997.8,829.457c1.681,2.146,1.654,4.859,1.585,7.452-.075,2.8-.184,5.61-.276,8.415l-.261,7.92c-.077,2.357.519,6.332-1.389,8.064-.595.54.289,1.42.882.881,1.591-1.444,1.567-3.473,1.64-5.48.137-3.795.249-7.59.374-11.385.113-3.434.367-6.9.3-10.332a10.2,10.2,0,0,0-1.972-6.416c-.495-.631-1.371.257-.882.881Z" fill="#f0fef3"/>
        </g>
        <g id="Group_188" data-name="Group 188">
          <path id="Path_157" data-name="Path 157" d="M961.29,855.208c2.162,4.631.848,9.574.376,14.408-.448,4.6,1.17,9.982-1.793,13.965-.479.644.6,1.266,1.077.629,3.139-4.22,1.484-9.74,1.963-14.594.505-5.119,1.732-10.158-.547-15.037-.339-.726-1.414-.094-1.076.629Z" fill="#f0fef3"/>
        </g>
      </g>
    </g>
  </g>
</svg>
