<svg xmlns="http://www.w3.org/2000/svg" width="399.577" height="376.25" viewBox="0 0 399.577 376.25">
  <g id="Group_195" data-name="Group 195" transform="translate(-106 -242)">
    <g id="Group_82" data-name="Group 82" transform="translate(-603.113 143.47)">
      <circle id="Ellipse_22" data-name="Ellipse 22" cx="2.982" cy="2.982" r="2.982" transform="translate(1070.555 233.552)" fill="#d86f5f"/>
      <path id="Path_19" data-name="Path 19" d="M1008.064,179.63c-6.625-11.127-22.684-17.96-35.33-14.946-19.041,4.538-19.653,25.681-21.979,41.634-1.786,12.249-5.794,24.871-15.012,33.131-5.313,4.761-11.957,7.713-18.406,10.766-16.366,7.746-32.464,16.812-44.987,29.888s-21.193,30.725-20.152,48.8a38.585,38.585,0,0,0,2.965,13.268c3.995,9.124,12.222,15.783,21.066,20.362a77.936,77.936,0,0,0,40.588,8.515c13-.835,26.186-5.272,35.355-14.526,13.143-13.263,15.751-33.408,17.351-52.011s3.47-38.647,15.729-52.73c3.792-4.355,8.422-7.916,12.261-12.231,11.492-12.912,17.188-32.421,14.269-49.5A30.086,30.086,0,0,0,1008.064,179.63Z" transform="translate(0 3.874)" fill="#afaff8"/>
      <g id="Group_70" data-name="Group 70" transform="translate(939.095 319.24)">
        <g id="Group_69" data-name="Group 69">
          <path id="Path_20" data-name="Path 20" d="M1080.216,305.64c-13.813-8-30.423-6.963-44.312.336-14.517,7.629-22.621,20.363-28.785,35.065-6.873,16.4-13.364,36.059-32.928,40.28-15.125,3.263-28.761,9.4-38.084,22.407-8.1,11.291-8.326,26.527,3.126,35.773,10.37,8.373,25.618,6.516,37.221,2.035a56.941,56.941,0,0,0,16.506-9.585c6.63-5.66,10.631-13.518,15.684-20.474,12.21-16.809,31.488-20.808,49.946-27.454,16.4-5.9,33.252-16.149,39.361-33.422s-2.817-35.6-17.735-44.959c-1.337-.838-2.565,1.276-1.235,2.112,15,9.406,23.123,28.152,15.5,44.943-6.862,15.127-22.317,23.922-37.321,29.244-13.695,4.856-28.5,8.1-40.2,17.209-12.1,9.418-16.769,25.171-29.469,33.91-10.646,7.325-25.968,12.439-38.8,8.612a22.634,22.634,0,0,1-15.512-15.623c-2-7.5.636-14.976,5.033-21.086A53.142,53.142,0,0,1,954.986,390.3c6.9-3.955,13.948-5.151,21.554-7.008,13.407-3.275,21.173-14.749,26.623-26.634,6.685-14.578,11.02-30.488,23.516-41.419,14.253-12.469,35.321-17.331,52.3-7.49A1.224,1.224,0,0,0,1080.216,305.64Z" transform="translate(-930.3 -300.058)" fill="#afaff8"/>
        </g>
      </g>
      <path id="Path_21" data-name="Path 21" d="M1023.094,262.422c-6.606-2.106-14.378,2.559-13.812,13.734.288,5.665,2.613,11.669,7.572,14.425,10.78,5.993,16.061-7.213,14.966-16C1030.973,267.783,1027.265,263.752,1023.094,262.422Z" transform="translate(17.676 14.893)" fill="#afaff8"/>
      <path id="Path_22" data-name="Path 22" d="M925.851,139.316c1.119-.5,2.976,4.536,2.976,4.536s-2-6.718-1.227-7.248c1.227-.837,3.385,6.837,3.385,6.837s-2.137-8.414-.522-8.61,2.786,8.37,2.786,8.37-.6-8.127.807-8.053,1.781,10.585,1.781,10.585,3.231-4.227,4.134-3.624c1.524,1.016-4.963,10.283-4.963,10.283l-6.092,1.153S924.732,139.819,925.851,139.316Z" transform="translate(8.273 0.596)" fill="#ecb8af"/>
      <path id="Path_23" data-name="Path 23" d="M1056.71,196.786c-.854-.88-4.439,3.118-4.439,3.118s4.342-5.506,3.815-6.284c-.832-1.23-5.669,5.106-5.669,5.106s5.09-7.032,3.661-7.811-5.677,6.753-5.677,6.753,3.557-7.331,2.222-7.783-5.561,9.181-5.561,9.181-1.443-5.121-2.505-4.894c-1.791.383.82,11.39.82,11.39l5.236,3.317S1057.564,197.666,1056.71,196.786Z" transform="translate(21.352 6.788)" fill="#ecb8af"/>
      <g id="Group_71" data-name="Group 71" transform="translate(911.663 149.627)">
        <path id="Path_24" data-name="Path 24" d="M1063.472,212.086c-2.683-1.841-5.28-3.8-7.87-5.774-.114.177-.23.366-.362.587a202.9,202.9,0,0,1-13.724,20.723c-1.344,1.744-2.472,3.655-3.924,5.324-1.177,1.354-1.2,1.359-2.332-.048a94.8,94.8,0,0,1-7.1-10.344,52.758,52.758,0,0,0-8.706-11.107,29.624,29.624,0,0,0-17.566-8.435,65.939,65.939,0,0,0-11.4.028c-.671,2.793-1.247,5.614-3.233,7.88a6.707,6.707,0,0,1-8.8,1.388c-2.634-1.545-3.816-3.989-4.433-6.817-.16-.736-.271-1.483-.406-2.225-3.719-.18-7.422-.689-11.155-.586a3.938,3.938,0,0,1-2.121-.705,66.942,66.942,0,0,0-11.389-5.189c-5.341-1.87-9.979-5.155-15.09-7.486-.781-.357-.854-.87-.708-1.654,1.207-6.42,2.343-12.855,3.557-19.274s2.954-12.729,4-19.186c.023-.147.042-.286.055-.417-4.444-.316-8.887-.6-13.293-1.175q-.142.269-.27.568c-2.564,6.023-4.959,12.1-6.95,18.34-1.78,5.579-3.635,11.132-5.679,16.622a62.7,62.7,0,0,0-3.1,10.252,11.175,11.175,0,0,0,.69,6.695,36.163,36.163,0,0,0,6.069,9.068c6.481,7.549,13.587,13.332,21.477,19.349a16.045,16.045,0,0,1,3.188,2.924c3.669,4.849,3.505,16.256,4.024,22.312.55,6.411-5.612,11.966-6.512,18.142a17.264,17.264,0,0,0,2.345,11.235,30.66,30.66,0,0,0,9.138,9.83,42.646,42.646,0,0,0,18.445,6.1,46.2,46.2,0,0,0,11.155-.019c6.237-.889,11.386-4.062,16.157-7.962.469-.384.922-.789,1.382-1.183.819-1.094,1.692-2.15,2.444-3.287a20.93,20.93,0,0,0,3.142-14.834c-1.067-7.837-.348-15.622.486-23.412a2.7,2.7,0,0,1,1.892-2.568c1.176-.395,1.626.59,2.236,1.185q6.773,6.617,14.009,12.722a37.938,37.938,0,0,0,8.027,5.169,8.2,8.2,0,0,0,8.615-.792,13.822,13.822,0,0,0,4.2-4.737c3.027-5.182,6.151-10.306,8.751-15.732,2.725-5.686,5.645-11.277,8.387-16.954a51.7,51.7,0,0,0,4.548-13.136C1064.973,213.046,1064.2,212.585,1063.472,212.086Z" transform="translate(-905.011 -147.595)" fill="#2b2b42"/>
        <path id="Path_25" data-name="Path 25" d="M952.517,278.547a42.656,42.656,0,0,0,18.446,6.1,46.194,46.194,0,0,0,11.155-.019c6.237-.889,11.385-4.062,16.157-7.962.469-.384.922-.789,1.382-1.183,2.079,4.035,4.548,7.868,5.682,12.365,2.708,10.745.789,20.459-6.154,29.141a114.075,114.075,0,0,1-18.416,18.592,18.773,18.773,0,0,0-1.742,1.777,2.633,2.633,0,0,0-1.393.714c-1.769,1.431-3.507,2.907-5.347,4.241-5.655,4.1-11.214,8.336-17.345,11.74-2.25,1.248-2.195,1.368-.714,3.639,2.7,4.136,5.563,8.161,8.078,12.416a74.195,74.195,0,0,1,6.085,8.258c2.568,3.864,4.948,7.852,7.529,11.708.9,1.343,1.271,2.515.263,3.889a64.287,64.287,0,0,0-6.343,8.7,14.233,14.233,0,0,0-2.405,3c-.54.725-1.022.779-1.671.2q-3.049-2.74-6.112-5.465a39,39,0,0,0-4.371-3.635q-6.361-5.155-12.724-10.311c-4.127-3.34-8.22-6.723-12.4-9.991-2.807-2.195-5.254-4.834-8.315-6.709-2.795-2.792-5.575-5.6-8.389-8.369a46.315,46.315,0,0,1-5.292-6.274c-3.38-4.777-3.363-8.486.106-13.157a117.294,117.294,0,0,1,12.518-13.894c2.671-2.605,5.341-5.206,7.845-7.971,6.082-6.714,12.463-13.145,18.721-19.691a3.914,3.914,0,0,0,1.245-2.99A50.733,50.733,0,0,1,952.517,278.547Z" transform="translate(-905.642 -133.209)" fill="#ecb8af"/>
        <path id="Path_26" data-name="Path 26" d="M920.367,360.222c3.06,1.876,5.508,4.514,8.315,6.709,4.182,3.269,8.275,6.652,12.4,9.991q6.366,5.151,12.724,10.311a41.13,41.13,0,0,0,1.6,7.77c2.1,8.533,4.136,17.08,5.871,25.7.339,1.682.274,1.705-1.281,2.251-.858.3-1.728.562-2.591.841l-10.763,3.337c-.99.378-1.975.772-2.971,1.134-1.881.681-1.9.677-2.6-1.107-1.375-3.458-2.7-6.934-4.111-10.377-2.933-7.169-5.856-14.343-8.875-21.475a266.943,266.943,0,0,1-8.834-25.616A11.818,11.818,0,0,1,920.367,360.222Z" transform="translate(-904.171 -123.677)" fill="#d86f5f"/>
        <path id="Path_27" data-name="Path 27" d="M957.5,363.854c-2.515-4.255-5.382-8.28-8.078-12.416-1.481-2.271-1.535-2.391.714-3.639,6.131-3.4,11.69-7.642,17.345-11.74,1.84-1.334,3.578-2.81,5.347-4.241a2.633,2.633,0,0,1,1.393-.714c-1.626,3.246-3.211,6.516-4.888,9.737-3.606,6.922-7.263,13.816-10.886,20.73A5.186,5.186,0,0,0,957.5,363.854Z" transform="translate(-900.836 -126.953)" fill="#d86f5f"/>
        <path id="Path_28" data-name="Path 28" d="M944.855,420.7l10.763-3.337c.1.98.188,1.962.3,2.94a6.7,6.7,0,0,1-2,6.046c-4.941,4.5-9.562,9.362-14.892,13.431a6.433,6.433,0,0,1-2.136,1.282c-1.493.407-2.405-.3-2.3-1.858a9.866,9.866,0,0,1,2.25-5.152,21.747,21.747,0,0,1,2.748-3.037c2.849-2.625,3.97-6.24,5.607-9.561C945.367,421.124,945.086,420.9,944.855,420.7Z" transform="translate(-902.385 -117.249)" fill="#2b2b42"/>
        <path id="Path_29" data-name="Path 29" d="M963.347,390.684a64.287,64.287,0,0,1,6.343-8.7,7.518,7.518,0,0,1,3.792,8.088c-.349,2.552-.6,5.119-.972,7.667a44.428,44.428,0,0,0-.437,7.48,7.961,7.961,0,0,1-.452,2.908,1.836,1.836,0,0,1-3.226.763,6.041,6.041,0,0,1-1.707-2.911,33.056,33.056,0,0,1-.928-4.442A57.909,57.909,0,0,0,963.347,390.684Z" transform="translate(-899.151 -121.229)" fill="#2b2b42"/>
        <path id="Path_30" data-name="Path 30" d="M985.135,176.677c-1.721-.323-3.44.982-4.126,3-.128-.083-.264-.18-.416-.3a5.972,5.972,0,0,1-1.958-2.565,5.576,5.576,0,0,1-.358-1.678c-.039-.637-.067-1.285-.1-2.1l-.018.009a5.275,5.275,0,0,0-1.951,1.361c-.168.17-.427-.426-.593-.261-2.351,2.37-4.6,2.657-8.221,2.908a4.284,4.284,0,0,1-1.313-.343c-.3-.248-.591-.485-.857-.733a14.863,14.863,0,0,0-.38,3.36,13.72,13.72,0,0,0,2.219,7.648c.021.032.044.063.067.1a8.575,8.575,0,0,0,5.011,3.647,2.541,2.541,0,0,1,.424,2c-.053.448.009.913-.07,1.355-.473,2.642-1.347,4.982-4.39,5.635-.334.071-.379.439-.523.7.135.742.246,1.488.406,2.225.617,2.828,1.8,5.272,4.433,6.817a6.707,6.707,0,0,0,8.8-1.388c1.986-2.266,2.562-5.086,3.233-7.88a12.292,12.292,0,0,1-5.964-10.174c-.015-.295-.078-.6-.078-.884a11.109,11.109,0,0,0,3.235-4.716,3.031,3.031,0,0,0,1.817,1.157c1.938.364,3.88-1.332,4.341-3.786S987.072,177.041,985.135,176.677Z" transform="translate(-898.982 -144.734)" fill="#ecb8af"/>
        <path id="Path_31" data-name="Path 31" d="M987.48,155.77a6.461,6.461,0,0,0-7.482-.857,6.646,6.646,0,0,0-3.977,6.386,17.846,17.846,0,0,0,.418,3.582,14.823,14.823,0,0,0-5.134-1.76,10.611,10.611,0,0,0-8.218,2.162,7.877,7.877,0,0,0-2.661,7.847c.848,3.089,3.74,4.915,6.635,5.816,4.333,1.347,8.13-1.135,11.659-3.369.023.624.049,1.159.08,1.681a5.652,5.652,0,0,0,2.312,4.245c1,.78,1.389.79,1.97-.1.048-.086.1-.171.162-.266.276-.447.485-.942.723-1.408a22.445,22.445,0,0,0,.523-5.321,7.924,7.924,0,0,0,7.434-7.042C992.667,162.651,990.925,158.8,987.48,155.77Z" transform="translate(-899.505 -146.862)" fill="#2b2b42"/>
      </g>
      <g id="Group_73" data-name="Group 73" transform="translate(946.086 298.281)">
        <g id="Group_72" data-name="Group 72" transform="translate(0 0)">
          <path id="Path_32" data-name="Path 32" d="M985.595,282.266c7.818,15.009-4.6,31.816-15.135,41.864-9.927,9.466-21.807,16.556-33.543,23.515a.694.694,0,0,0,.7,1.2c13.768-8.163,27.9-16.592,38.623-28.694,9.008-10.161,17.555-25.137,10.552-38.581-.413-.792-1.61-.091-1.2.7Z" transform="translate(-936.584 -281.218)" fill="#d86f5f"/>
        </g>
      </g>
      <g id="Group_75" data-name="Group 75" transform="translate(943.1 361.403)">
        <g id="Group_74" data-name="Group 74" transform="translate(0 0)">
          <path id="Path_33" data-name="Path 33" d="M934.02,338.97a566.479,566.479,0,0,0,37.137,48.868c.578.681,1.556-.3.981-.981a563.023,563.023,0,0,1-36.921-48.587c-.5-.735-1.7-.042-1.2.7Z" transform="translate(-933.9 -337.957)" fill="#d86f5f"/>
        </g>
      </g>
      <g id="Group_76" data-name="Group 76" transform="translate(944.494 455.074)">
        <path id="Path_34" data-name="Path 34" d="M955.625,422.46c-5.348,7.4-12.834,12.809-20.169,18.077-.718.516-.027,1.72.7,1.2,7.542-5.417,15.169-10.969,20.666-18.575.524-.724-.679-1.417-1.2-.7Z" transform="translate(-935.153 -422.157)" fill="#fff"/>
      </g>
      <g id="Group_77" data-name="Group 77" transform="translate(947.92 462.682)">
        <path id="Path_35" data-name="Path 35" d="M938.435,430.171q2.448,1.916,4.8,3.949a.71.71,0,0,0,.98,0,.7.7,0,0,0,0-.981q-2.35-2.033-4.8-3.948a.715.715,0,0,0-.98,0,.7.7,0,0,0,0,.98Z" transform="translate(-938.232 -428.996)" fill="#fff"/>
      </g>
      <g id="Group_78" data-name="Group 78" transform="translate(949.03 460.309)">
        <path id="Path_36" data-name="Path 36" d="M939.574,428.15q3.386,1.842,6.6,3.977a.693.693,0,0,0,.7-1.2q-3.209-2.134-6.6-3.977c-.784-.427-1.485.77-.7,1.2Z" transform="translate(-939.231 -426.862)" fill="#fff"/>
      </g>
      <g id="Group_79" data-name="Group 79" transform="translate(976.574 422.784)">
        <path id="Path_37" data-name="Path 37" d="M972.777,393.251a73.108,73.108,0,0,1-8.434,4.875c-.8.395-.1,1.591.7,1.2a73.128,73.128,0,0,0,8.434-4.876c.738-.5.044-1.7-.7-1.2Z" transform="translate(-963.989 -393.132)" fill="#fff"/>
      </g>
      <g id="Group_80" data-name="Group 80" transform="translate(976.71 426.439)">
        <path id="Path_38" data-name="Path 38" d="M973.068,396.524q-4.207,2.583-8.606,4.828c-.8.4-.094,1.6.7,1.2q4.4-2.244,8.606-4.828c.76-.466.064-1.665-.7-1.2Z" transform="translate(-964.111 -396.417)" fill="#fff"/>
      </g>
      <g id="Group_81" data-name="Group 81" transform="translate(982.769 413.622)">
        <path id="Path_39" data-name="Path 39" d="M972.736,385.565q-.287,6.054-.9,12.085-.3,2.954-.69,5.9c-.255,1.944-.368,4.047-1.473,5.73-.491.749.71,1.444,1.2.7a12.306,12.306,0,0,0,1.512-5.3q.412-3.035.74-6.082.7-6.5,1-13.029c.042-.892-1.345-.89-1.387,0Z" transform="translate(-969.558 -384.896)" fill="#fff"/>
      </g>
      <ellipse id="Ellipse_23" data-name="Ellipse 23" cx="10.347" cy="11.89" rx="10.347" ry="11.89" transform="translate(985.064 154.14)" fill="#2b2b42"/>
      <path id="Path_40" data-name="Path 40" d="M975.079,181.876a3.156,3.156,0,0,1-6.282-.314Z" transform="translate(13.126 5.853)" fill="#fff"/>
      <circle id="Ellipse_24" data-name="Ellipse 24" cx="6.482" cy="6.482" r="6.482" transform="translate(1080.4 273.508)" fill="#e2ac63"/>
      <path id="Path_41" data-name="Path 41" d="M1058.011,132.961a3.432,3.432,0,1,1-3.432-3.431A3.431,3.431,0,0,1,1058.011,132.961Z" transform="translate(22.389)" fill="#d86f5f"/>
      <path id="Path_42" data-name="Path 42" d="M1024.671,163.1l3.906,7.142,7.142,3.906-7.142,3.906-3.906,7.142-3.906-7.142-7.142-3.906,7.142-3.906Z" transform="translate(18.168 3.776)" fill="#ecb8af"/>
    </g>
    <g id="Group_136" data-name="Group 136" transform="translate(-1051.835 116.332)">
      <path id="Path_43" data-name="Path 43" d="M1355.227,228.736c-9.033-6.019-20.9-7.212-33.459-.276-13.847,7.648-24.026,15.461-40.7,12.43-26.195-4.761-47.4-19.613-75.087-18.194-14.591.748-29.679,5.871-39.014,17.209a41.786,41.786,0,0,0-8.6,32.768,46.18,46.18,0,0,0,17.7,29.049c7.073,5.354,15.836,8.7,24.67,8.3,8.033-.366,15.584-3.722,23.08-6.66,18.058-7.079,38.314-11.963,56.627-5.583,11.176,3.894,20.543,11.84,32.419,13.545a52.588,52.588,0,0,0,34.234-6.786c13.224-7.929,23.263-22.424,24.64-37.951C1373.132,250.776,1366.313,236.122,1355.227,228.736Z" fill="#afaff8"/>
      <g id="Group_84" data-name="Group 84">
        <g id="Group_83" data-name="Group 83">
          <path id="Path_44" data-name="Path 44" d="M1229.154,331.661c-7.491,3.249-16.411,7.558-19.805,15.554-3.418,8.051.927,16.377,7.365,21.4,4.363,3.4,9.512,5.569,14.521,7.822q9.393,4.223,18.789,8.441c5.15,2.314,10.9,4.379,14.831,8.6,3.522,3.777,5.116,8.929,6.808,13.687,2.244,6.313,4.852,13.687,11.705,16.255,7.655,2.868,16.22-2.067,18.6-9.632,2.709-8.608-1.85-16.659-8.551-21.838-8.516-6.582-18.438-10.182-24.57-19.589-6.729-10.325-4.582-24.05-13.664-32.984a27.333,27.333,0,0,0-25.823-7.121,1.031,1.031,0,0,0,.547,1.986,25.284,25.284,0,0,1,24.752,7.56c6.648,7.3,5.656,17.477,9.444,26.091a39.912,39.912,0,0,0,14.393,16.949c6.722,4.548,15.489,7.933,19.776,15.236,2.736,4.66,3.359,10.723.679,15.573-2.99,5.41-10.169,8.211-15.858,5.412-6.786-3.34-8.482-12.134-10.93-18.566-2.27-5.963-5.257-11.008-10.813-14.417-8.451-5.186-18.341-8.6-27.37-12.653-9.671-4.345-24.356-9.971-23.8-22.923.436-10.163,11.98-15.578,20.012-19.063,1.212-.526.165-2.3-1.039-1.777Z" fill="#afaff8"/>
        </g>
      </g>
      <g id="Group_86" data-name="Group 86">
        <g id="Group_85" data-name="Group 85">
          <path id="Path_45" data-name="Path 45" d="M1269.911,183.644c-3.838-10.988,7.459-17.868,17.047-17.71,7.636.126,15.241,3.1,22.634-.172,14.17-6.272,15.037-24.331,26.167-33.5,7.509-6.186,19.228-5.794,21.312,5.382,1.645,8.823-4.814,16.316-11.034,21.63-6.2,5.294-12.64,9.844-17.793,16.26-4.859,6.049-8.991,12.75-14.723,18.049-7.372,6.815-18.146,11.057-28.155,8.323-9.165-2.5-16.15-10.968-15.786-20.583.053-1.414-2.144-1.412-2.2,0-.668,17.648,18.172,26.937,33.479,22.159,9.075-2.833,15.752-9.154,21.465-16.52,3.21-4.138,6.152-8.487,9.606-12.431,3.695-4.219,8.056-7.592,12.424-11.068,6.631-5.276,13.828-11.779,15.007-20.687.862-6.515-2.062-13.966-8.594-16.342-7.237-2.633-15.047,1.952-19.667,7.347-6.7,7.826-8.976,18.62-16.495,25.855-10.655,10.251-23.393,1.255-35.707,5.192-8.235,2.633-14.132,10.742-11.108,19.4.464,1.326,2.587.756,2.119-.584Z" fill="#afaff8"/>
        </g>
      </g>
      <g id="Group_135" data-name="Group 135">
        <g id="Group_130" data-name="Group 130">
          <g id="Group_88" data-name="Group 88">
            <path id="Path_46" data-name="Path 46" d="M1327.447,168.161a91.964,91.964,0,0,0-5.252-23.808c-1.986-.051-3.969-.16-5.951-.28a43.414,43.414,0,0,1,.379,4.551c.126,2.73.247,5.466.529,8.182.655,6.322,1.4,12.635,2.128,18.949a5.139,5.139,0,0,1-.551,2.965c-2.322,4.719-4.268,9.622-6.926,14.181a22.809,22.809,0,0,0-1.138,2.627,1.8,1.8,0,0,0,.107.591,119.549,119.549,0,0,1,5.8,10.629c.051.111.2.178.3.266a16.375,16.375,0,0,0,3.815-5.523c1.683-3.444,3.092-7.008,4.447-10.588a43.656,43.656,0,0,0,2.943-12.114A59.628,59.628,0,0,0,1327.447,168.161Z" fill="#d86f5f"/>
            <g id="Group_87" data-name="Group 87">
              <path id="Path_47" data-name="Path 47" d="M1357.31,327.579c-.674-5.926-3.665-12.06-10.188-12.945a16.338,16.338,0,0,0-10.391,2.536c-7.182,4.294-18.819,17.984-25.885,5.9-2.4-4.114-3.6-9.153-4.6-13.77-2.254-10.379-4.29-20.807-6.828-31.123q-.53-1.485-1.026-2.979a178.177,178.177,0,0,1-25.422,2.475,66.942,66.942,0,0,1-23.444-3.3c-1.363-.44-2.749-.813-4.124-1.217-11.662,14.354-19.6,30.609-28.074,46.908-7.691,14.792-19.412,26.886-28.573,40.707-8.113,12.238-18.176,30.871-7.555,44.6a46.551,46.551,0,0,0,4.6,4.9,22.29,22.29,0,0,0,5.87,3.61c1.012.152,2.02.375,3.039.445,10.178.7,18.071-3.71,24.21-11.385a71.774,71.774,0,0,0,9.447-16.283c4.686-10.724,8.572-21.756,12.821-32.647A78.271,78.271,0,0,1,1252.7,333.53a19.207,19.207,0,0,1,6.065-5.11c6.279-3.353,11.367,1.04,13.646,6.8,4.719,11.922,8.5,24.5,17.768,33.862,5.238,5.3,12.252,9.154,19.7,9.348,15.65.409,31.921-13.836,41.232-25.209C1355.114,348.329,1358.359,336.8,1357.31,327.579Z" fill="#2b2b42"/>
              <path id="Path_48" data-name="Path 48" d="M1306.9,194.4a8.718,8.718,0,0,0-.664.6,38.139,38.139,0,0,1-2.969,2.805,48.952,48.952,0,0,0-6.424,6.271,2.353,2.353,0,0,1-1.961.814c-2.452.056-4.9.09-7.352.3-1.354.114-3.545-1.176-4.337.282-.093.171.339,1.344.087,1.428a5.621,5.621,0,0,1-5.9,5.449c-3.054-.031-5.12-2.314-5.234-5.786-.437-.9-1.189-.977-2.069-.855-3.8.527-7.636.157-11.438.393-2.41.149-4.841-2.317-6.537-3.753-3.5-2.96-6.783-3.74-10.473-6.432-.367-.268-.7-.7-1.393-.436-.585,2.292-1.191,4.663-1.8,7.035l-2.457,12.636c-.549,1.865.347,3.13,1.746,4.178.6.45,1.209.891,1.829,1.316a35.538,35.538,0,0,0,10.6,4.783,1.658,1.658,0,0,1,1.441,2.009c-.163,3.21-.362,6.418-.811,9.6-.793,5.617-1.677,11.215-3.717,16.563-1.848,4.846-3.372,9.815-5.689,14.482-.879,1.771-.485,2.732,1.275,3.691.9.487,1.823.917,2.736,1.373,1.376.4,2.761.777,4.124,1.217a66.942,66.942,0,0,0,23.444,3.3,169.868,169.868,0,0,0,27.306-2.843c4.694-2.27,5.11-3.237,3.827-8.353a84.387,84.387,0,0,1-2.781-17.989c-.2-6.632.364-13.25.376-19.876a3.18,3.18,0,0,1,2.108-3.269,31.856,31.856,0,0,0,5.489-3.174c3.546-2.678,5.739-6.346,7.743-10.188a4.663,4.663,0,0,0,.553-3.621A161.347,161.347,0,0,0,1306.9,194.4Z" fill="#e2ac63"/>
              <path id="Path_49" data-name="Path 49" d="M1236.217,200.142a76.055,76.055,0,0,0-5.985-7.025c-1.809-1.873-3.4-3.936-5.074-5.919a4.455,4.455,0,0,1-1.193-2.76c-.189-4.857-1.193-9.621-1.614-14.457-.469-5.374-1.321-10.716-2.053-16.065a31.831,31.831,0,0,1,.631-8.785c-1.821.692-4.211,4.667-6.009,4.288a7.707,7.707,0,0,1-.11,1.7c-1.077,5.919-2.208,11.831-2.819,17.826-.661,6.483-.348,12.84,2.315,18.906,1.375,3.13,2.8,6.24,4.23,9.344a13.749,13.749,0,0,0,1.148,1.936c4.374,6.418,10.051,11.512,16.3,16.023l2.457-12.636A8.239,8.239,0,0,1,1236.217,200.142Z" fill="#d86f5f"/>
              <path id="Path_50" data-name="Path 50" d="M1283.283,206.907a5.621,5.621,0,0,1-5.9,5.449c-3.054-.031-5.12-2.314-5.234-5.786a5.127,5.127,0,0,0,2.685-5.406,1.527,1.527,0,0,0-.823-1.084,8.114,8.114,0,0,1-2.576-2.576c-.761-1.207-1.1-2.659-3-2.871-1.039-.116-1.389-1.42-1.36-2.495.037-1.378.469-2.553,2.01-2.929.991.65,1.7.41,2.01-.723a1.554,1.554,0,0,1,1.762-1.309c.6.016,1.2-.288,1.808-.314a5.49,5.49,0,0,0,5.456-4.145c.029-.089.216-.128.388-.222a3.439,3.439,0,0,1,1.822,2.744c.306,1.469.5,2.963.82,4.429.411,1.866.967,2.145,2.9,1.607,1.541.85,1.677,2.222,1.255,3.7a2.691,2.691,0,0,1-2.862,2.134,1.582,1.582,0,0,0-1.638.921,10.851,10.851,0,0,1-.706,1c-.48.7-1.557,1.012-1.419,2.1a8.121,8.121,0,0,0,1.4,4.4C1282.469,206,1282.882,206.448,1283.283,206.907Z" fill="#d77062"/>
              <path id="Path_51" data-name="Path 51" d="M1181.2,405.367a46.551,46.551,0,0,0,4.6,4.9,22.29,22.29,0,0,0,5.87,3.61.985.985,0,0,0-.848.989,26.693,26.693,0,0,1-.4,3.044c-.88,4.133-3.542,5.813-7.526,3.934-2.219-1.046-3.765-2.94-5.527-4.528a25.3,25.3,0,0,0-6.218-4.279,33.926,33.926,0,0,1-5.713-3.216,6.736,6.736,0,0,1-2-2.026,3.2,3.2,0,0,1,2.443-4.907,8.478,8.478,0,0,1,2.853.165c3.272.709,6.555,1.364,9.826,2.072A14.871,14.871,0,0,0,1181.2,405.367Z" fill="#9bf4ab"/>
              <path id="Path_52" data-name="Path 52" d="M1356.755,327.645c-.3-1.46-.543-2.938-.925-4.378-1.467-5.527-4.639-8.75-10.659-8.769a5.543,5.543,0,0,1-.8-.12,8.255,8.255,0,0,1,7.431-3.446,10.886,10.886,0,0,1,5.364,1.845c1.48.984,2.888,2.057,4.3,3.131,2.515,1.912,5.455,3.1,8.181,4.656a15.064,15.064,0,0,1,3.075,2.013c2.218,2.115,2.207,4.359-.143,6.3a6.624,6.624,0,0,1-5.553,1.455A44.561,44.561,0,0,1,1356.755,327.645Z" fill="#9bf4ab"/>
              <path id="Path_53" data-name="Path 53" d="M1285.207,190.685a1.874,1.874,0,0,0-.708.156c-.1-5.917-3.423-10.671-7.515-10.671-3.675,0-6.729,3.83-7.389,8.894a1.715,1.715,0,0,0-.378-.054c-1.358,0-2.46,1.564-2.46,3.493s1.1,3.493,2.46,3.493a1.841,1.841,0,0,0,.949-.271c.984,4.354,3.8,6.331,6.818,6.331,2.673,0,5.015-2.034,6.35-5.089a2.316,2.316,0,0,0,1.873,1.132c1.441,0,2.61-1.66,2.61-3.707S1286.648,190.685,1285.207,190.685Z" fill="#d77062"/>
            </g>
            <path id="Path_54" data-name="Path 54" d="M1286,190.9a2,2,0,0,0-2.267,1.043,49.219,49.219,0,0,1-1.244-6.355,4.415,4.415,0,0,1-3.778,2,13.016,13.016,0,0,1-4.359-.889,3.918,3.918,0,0,1-.656,2.988,2.821,2.821,0,0,1-4.977-.633,4.007,4.007,0,0,1,.022-2.938,4.389,4.389,0,0,1-3.461-2.464,6.154,6.154,0,0,1-.31-4.334,3.318,3.318,0,0,1,.694-1.4,4.121,4.121,0,0,1,2.739-.977,4.53,4.53,0,0,1-1.777-4.649,4.647,4.647,0,0,1,3.7-3.43,3.46,3.46,0,0,1,1.974.223,2.353,2.353,0,0,1,1.3,1.454,12.577,12.577,0,0,1-.541-3.6,5.015,5.015,0,0,1,1.178-3.215,4.831,4.831,0,0,1,2.688-1.418,6.48,6.48,0,0,1,6.619,2.991c1.4,2.365,1.111,5.329.645,8.035q-.427,2.477-1.008,4.923a1.484,1.484,0,0,1,2.178-.373,3.835,3.835,0,0,1,1.287,2.18A16.589,16.589,0,0,1,1286,190.9Z" fill="#e2ac63"/>
          </g>
          <path id="Path_55" data-name="Path 55" d="M1329.178,137.777c-.669-.888-4.343,2.3-4.343,2.3s4.526-4.457,4.14-5.217c-.609-1.2-5.674,3.949-5.674,3.949s5.371-5.745,4.174-6.607-5.867,5.428-5.867,5.428,4.027-6.187,2.878-6.744-6.037,7.624-6.037,7.624-.718-4.767-1.7-4.683c-1.654.141-.553,10.33-.553,10.33l4.333,3.575S1329.846,138.665,1329.178,137.777Z" fill="#d86f5f"/>
          <path id="Path_56" data-name="Path 56" d="M1207.892,141.87c.755-.816,4.086,2.729,4.086,2.729s-4.049-4.894-3.588-5.611c.727-1.132,5.243,4.5,5.243,4.5s-4.76-6.261-3.482-7,5.286,6,5.286,6-3.378-6.564-2.178-7,5.232,8.2,5.232,8.2,1.2-4.669,2.164-4.487c1.631.309-.5,10.333-.5,10.333l-4.673,3.117S1207.136,142.685,1207.892,141.87Z" fill="#d86f5f"/>
          <g id="Group_90" data-name="Group 90">
            <g id="Group_89" data-name="Group 89">
              <path id="Path_57" data-name="Path 57" d="M1238.122,193.619a154.558,154.558,0,0,1-5.845,23.282c-1.022,3.05,3.792,4.358,4.808,1.326a154.455,154.455,0,0,0,5.845-23.282c.534-3.139-4.27-4.488-4.808-1.326Z" fill="#fbf3e8"/>
            </g>
          </g>
          <g id="Group_92" data-name="Group 92">
            <g id="Group_91" data-name="Group 91">
              <path id="Path_58" data-name="Path 58" d="M1305.464,193.421l11.2,17.874,3.916-3.021-.481-.468c-2.3-2.241-5.828,1.281-3.525,3.526l.48.468c1.985,1.935,5.454-.567,3.915-3.021l-11.2-17.874c-1.7-2.713-6.016-.213-4.305,2.516Z" fill="#fbf3e8"/>
            </g>
          </g>
          <path id="Path_59" data-name="Path 59" d="M1278.855,195.618a2.837,2.837,0,0,1-5.647-.281Z" fill="#fff"/>
          <g id="Group_94" data-name="Group 94">
            <g id="Group_93" data-name="Group 93">
              <path id="Path_60" data-name="Path 60" d="M1275.034,242.532A68.121,68.121,0,0,1,1260.979,255c-1.33.884-.083,3.044,1.258,2.153a70.471,70.471,0,0,0,14.559-12.857c1.039-1.213-.716-2.984-1.762-1.763Z" fill="#fbf3e8"/>
            </g>
          </g>
          <g id="Group_96" data-name="Group 96">
            <g id="Group_95" data-name="Group 95">
              <path id="Path_61" data-name="Path 61" d="M1285.951,230.926a47.3,47.3,0,0,1-4.872,5.675,1.247,1.247,0,0,0,1.762,1.763,51.242,51.242,0,0,0,5.263-6.179c.944-1.3-1.218-2.546-2.153-1.259Z" fill="#fbf3e8"/>
            </g>
          </g>
          <g id="Group_98" data-name="Group 98">
            <g id="Group_97" data-name="Group 97">
              <path id="Path_62" data-name="Path 62" d="M1257.582,276.725c-6.389,13.005-5.828,29.421-4.882,43.521.054.8,1.3.8,1.247,0-.93-13.843-1.548-30.152,4.711-42.892.353-.717-.722-1.349-1.076-.629Z" fill="#9bf4ab"/>
            </g>
          </g>
          <g id="Group_100" data-name="Group 100">
            <g id="Group_99" data-name="Group 99">
              <path id="Path_63" data-name="Path 63" d="M1264.537,277.922c-3.3,14.853-3.161,30.245-.669,45.21.132.79,1.333.455,1.2-.331-2.453-14.734-2.583-29.925.669-44.547.174-.782-1.028-1.116-1.2-.332Z" fill="#9bf4ab"/>
            </g>
          </g>
          <g id="Group_102" data-name="Group 102">
            <g id="Group_101" data-name="Group 101">
              <path id="Path_64" data-name="Path 64" d="M1249.518,321.489c7.755-.825,14.785.2,19.413,7.02,2.935,4.324,4.555,9.424,5.8,14.454a.624.624,0,0,0,1.2-.331c-1.461-5.906-3.485-12.126-7.494-16.841-4.863-5.72-11.8-6.306-18.921-5.548-.79.084-.8,1.331,0,1.246Z" fill="#9bf4ab"/>
            </g>
          </g>
          <g id="Group_104" data-name="Group 104">
            <g id="Group_103" data-name="Group 103">
              <path id="Path_65" data-name="Path 65" d="M1280.995,278.634c3.964,8.808,11.351,23.94,23.577,20.307a.624.624,0,0,0-.331-1.2c-11.565,3.436-18.418-11.4-22.17-19.734-.328-.73-1.4-.1-1.076.629Z" fill="#9bf4ab"/>
            </g>
          </g>
          <g id="Group_106" data-name="Group 106">
            <g id="Group_105" data-name="Group 105">
              <path id="Path_66" data-name="Path 66" d="M1251.568,275.6c-2.321,4.441-4.676,9-8.246,12.587a19.724,19.724,0,0,1-6.287,4.356c-1.921.812-4.005.9-5.791,1.961a.624.624,0,0,0,.629,1.076c2.032-1.2,4.686-1.308,6.831-2.4a21.933,21.933,0,0,0,5.5-4.108c3.646-3.663,6.069-8.3,8.44-12.838.371-.711-.7-1.342-1.076-.63Z" fill="#9bf4ab"/>
            </g>
          </g>
          <g id="Group_108" data-name="Group 108">
            <g id="Group_107" data-name="Group 107">
              <path id="Path_67" data-name="Path 67" d="M1256.918,321.85c-14.293,11.6-22.534,28.082-30.031,44.508-4.177,9.151-8.4,18.483-14.76,26.364-6.527,8.082-17.384,17.341-28.537,14.818-.781-.177-1.114,1.025-.331,1.2,18.683,4.226,33.265-18.119,40.156-32.05,9.566-19.34,17.088-39.927,34.384-53.961.623-.5-.263-1.383-.881-.881Z" fill="#9bf4ab"/>
            </g>
          </g>
          <g id="Group_110" data-name="Group 110">
            <g id="Group_109" data-name="Group 109">
              <path id="Path_68" data-name="Path 68" d="M1298,298.89l3.135,16.153c.633,3.256.622,9.606,2.709,12.234,1.989,2.505,6.305,3.712,8.766,5.894,4.161,3.689,6.967,8.393,7.272,14,.043.8,1.29.8,1.246,0-.4-7.3-4.723-13.109-10.6-17.194-2.091-1.453-5.014-2.358-6.16-4.816-1.088-2.335-1.174-6.048-1.66-8.552l-3.5-18.053c-.153-.787-1.354-.454-1.2.331Z" fill="#9bf4ab"/>
            </g>
          </g>
          <g id="Group_112" data-name="Group 112">
            <g id="Group_111" data-name="Group 111">
              <path id="Path_69" data-name="Path 69" d="M1320.016,340.376a82.441,82.441,0,0,1,17.729-15.15c6.671-4.19,17.307-10.887,24.387-4.154.581.553,1.464-.327.881-.881-5.956-5.665-13.91-2.575-20.259.728a82.855,82.855,0,0,0-23.619,18.575c-.532.6.346,1.483.881.882Z" fill="#9bf4ab"/>
            </g>
          </g>
          <g id="Group_114" data-name="Group 114">
            <g id="Group_113" data-name="Group 113">
              <path id="Path_70" data-name="Path 70" d="M1162.952,406.165a72.96,72.96,0,0,1,15.9,8.7c3.429,2.51,6.358,5.978,10.869,5.911a.624.624,0,0,0,0-1.247c-4.87.073-10.547-6.156-14.589-8.658a77.334,77.334,0,0,0-11.851-5.907c-.744-.3-1.067.906-.331,1.2Z" fill="#f0fef3"/>
            </g>
          </g>
          <g id="Group_116" data-name="Group 116">
            <g id="Group_115" data-name="Group 115">
              <path id="Path_71" data-name="Path 71" d="M1172.152,401.357a26.052,26.052,0,0,1,1.376,6.144c.078.792,1.325.8,1.247,0a27.468,27.468,0,0,0-1.421-6.475c-.264-.752-1.469-.428-1.2.331Z" fill="#f0fef3"/>
            </g>
          </g>
          <g id="Group_118" data-name="Group 118">
            <g id="Group_117" data-name="Group 117">
              <path id="Path_72" data-name="Path 72" d="M1174.806,401.358a31.639,31.639,0,0,0,2.405,7.457c.336.727,1.411.1,1.076-.629a30.346,30.346,0,0,1-2.279-7.159c-.149-.787-1.35-.454-1.2.331Z" fill="#f0fef3"/>
            </g>
          </g>
          <g id="Group_120" data-name="Group 120">
            <g id="Group_119" data-name="Group 119">
              <path id="Path_73" data-name="Path 73" d="M1347.93,311.8c4.892.528,8.486,5.632,12.82,7.794,4.313,2.152,8.863,3.434,12.518,6.738.594.537,1.478-.342.882-.882-4.1-3.706-9.335-4.95-14.059-7.6-4.265-2.393-7.054-6.746-12.161-7.3-.8-.086-.791,1.161,0,1.246Z" fill="#f0fef3"/>
            </g>
          </g>
          <g id="Group_121" data-name="Group 121">
            <path id="Path_74" data-name="Path 74" d="M1241.714,199.682a83.742,83.742,0,0,1,13.986,9.931c.6.527,1.486-.351.882-.881a85.354,85.354,0,0,0-14.239-10.126.624.624,0,0,0-.629,1.076Z" fill="#fbf3e8"/>
          </g>
          <g id="Group_122" data-name="Group 122">
            <path id="Path_75" data-name="Path 75" d="M1256.023,209.9a127.27,127.27,0,0,1,17.7.264c.8.068.795-1.179,0-1.246a126.962,126.962,0,0,0-17.7-.264c-.8.043-.8,1.29,0,1.246Z" fill="#fbf3e8"/>
          </g>
          <g id="Group_123" data-name="Group 123">
            <path id="Path_76" data-name="Path 76" d="M1242.3,197.012a57.28,57.28,0,0,1,13.481,9.294c.588.545,1.471-.335.881-.881a58.351,58.351,0,0,0-13.733-9.489c-.716-.356-1.348.719-.629,1.076Z" fill="#fbf3e8"/>
          </g>
          <g id="Group_124" data-name="Group 124">
            <path id="Path_77" data-name="Path 77" d="M1256.523,206.436h15.208a.623.623,0,0,0,0-1.246h-15.208a.623.623,0,0,0,0,1.246Z" fill="#fbf3e8"/>
          </g>
          <g id="Group_125" data-name="Group 125">
            <path id="Path_78" data-name="Path 78" d="M1283.2,206.1q6.508-.27,13.018-.144-.156-.58-.314-1.162l-.3.231c-.626.483-.006,1.566.629,1.077l.3-.231a.63.63,0,0,0-.315-1.162q-6.511-.126-13.018.144c-.8.034-.8,1.28,0,1.247Z" fill="#fbf3e8"/>
          </g>
          <g id="Group_126" data-name="Group 126">
            <path id="Path_79" data-name="Path 79" d="M1296.507,205.668a42.43,42.43,0,0,1,11.152-10.349c.673-.431.049-1.511-.63-1.076a44.133,44.133,0,0,0-11.6,10.8c-.481.643.6,1.265,1.077.629Z" fill="#fbf3e8"/>
          </g>
          <g id="Group_127" data-name="Group 127">
            <path id="Path_80" data-name="Path 80" d="M1282.7,209.2l15.212-.944c.8-.049.8-1.3,0-1.246l-15.212.944c-.8.049-.8,1.3,0,1.246Z" fill="#fbf3e8"/>
          </g>
          <g id="Group_128" data-name="Group 128">
            <path id="Path_81" data-name="Path 81" d="M1297.666,208.3a42.2,42.2,0,0,1,12.051-10.13.624.624,0,0,0-.629-1.076,43.077,43.077,0,0,0-12.3,10.325c-.5.616.372,1.5.881.881Z" fill="#fbf3e8"/>
          </g>
          <g id="Group_129" data-name="Group 129">
            <path id="Path_82" data-name="Path 82" d="M1270.825,205.515c.437,1.947.155,3.975,1.776,5.439,1.355,1.224,3.38,1.465,5.134,1.483,5.039.049,6.61-3.769,6.7-8.227a1.247,1.247,0,0,0-2.493,0,8.816,8.816,0,0,1-.687,4.114c-.866,1.557-2.612,1.7-4.2,1.593-1.262-.089-2.488-.278-3.151-1.423-.569-.982-.426-2.521-.678-3.642-.352-1.565-2.756-.9-2.4.663Z" fill="#fbf3e8"/>
          </g>
        </g>
        <g id="Group_132" data-name="Group 132">
          <g id="Group_131" data-name="Group 131">
            <path id="Path_83" data-name="Path 83" d="M1362.274,323.738v6.649a.623.623,0,0,0,1.246,0v-6.649a.623.623,0,0,0-1.246,0Z" fill="#f0fef3"/>
          </g>
        </g>
        <g id="Group_134" data-name="Group 134">
          <g id="Group_133" data-name="Group 133">
            <path id="Path_84" data-name="Path 84" d="M1366.82,327.529a35.331,35.331,0,0,0-.657,3.489c-.107.785,1.094,1.124,1.2.332a35.351,35.351,0,0,1,.657-3.49c.188-.779-1.014-1.112-1.2-.331Z" fill="#f0fef3"/>
          </g>
        </g>
      </g>
      <path id="Path_85" data-name="Path 85" d="M1339.572,387.807a3.26,3.26,0,1,1-3.26-3.259A3.26,3.26,0,0,1,1339.572,387.807Z" fill="#e2ac63"/>
      <path id="Path_86" data-name="Path 86" d="M1354.364,208.1a3.585,3.585,0,1,1-3.585-3.585A3.585,3.585,0,0,1,1354.364,208.1Z" fill="#d86f5f"/>
      <path id="Path_87" data-name="Path 87" d="M1210.888,237.929a4.456,4.456,0,1,1-4.456-4.456A4.456,4.456,0,0,1,1210.888,237.929Z" fill="#e2ac63"/>
      <circle id="Ellipse_25" data-name="Ellipse 25" cx="3.239" cy="3.239" r="3.239" transform="translate(1191.947 206.93)" fill="#d86f5f"/>
    </g>
  </g>
</svg>
