<svg xmlns="http://www.w3.org/2000/svg" width="374.574" height="360.589" viewBox="0 0 374.574 360.589">
  <g id="Group_197" data-name="Group 197" transform="translate(-106 -219)">
    <g id="Group_82" data-name="Group 82" transform="translate(-746.113 89.47)">
      <circle id="Ellipse_22" data-name="Ellipse 22" cx="2.982" cy="2.982" r="2.982" transform="translate(1070.555 233.552)" fill="#d86f5f"/>
      <path id="Path_19" data-name="Path 19" d="M1008.064,179.63c-6.625-11.127-22.684-17.96-35.33-14.946-19.041,4.538-19.653,25.681-21.979,41.634-1.786,12.249-5.794,24.871-15.012,33.131-5.313,4.761-11.957,7.713-18.406,10.766-16.366,7.746-32.464,16.812-44.987,29.888s-21.193,30.725-20.152,48.8a38.585,38.585,0,0,0,2.965,13.268c3.995,9.124,12.222,15.783,21.066,20.362a77.936,77.936,0,0,0,40.588,8.515c13-.835,26.186-5.272,35.355-14.526,13.143-13.263,15.751-33.408,17.351-52.011s3.47-38.647,15.729-52.73c3.792-4.355,8.422-7.916,12.261-12.231,11.492-12.912,17.188-32.421,14.269-49.5A30.086,30.086,0,0,0,1008.064,179.63Z" transform="translate(0 3.874)" fill="#afaff8"/>
      <g id="Group_70" data-name="Group 70" transform="translate(939.095 319.24)">
        <g id="Group_69" data-name="Group 69">
          <path id="Path_20" data-name="Path 20" d="M1080.216,305.64c-13.813-8-30.423-6.963-44.312.336-14.517,7.629-22.621,20.363-28.785,35.065-6.873,16.4-13.364,36.059-32.928,40.28-15.125,3.263-28.761,9.4-38.084,22.407-8.1,11.291-8.326,26.527,3.126,35.773,10.37,8.373,25.618,6.516,37.221,2.035a56.941,56.941,0,0,0,16.506-9.585c6.63-5.66,10.631-13.518,15.684-20.474,12.21-16.809,31.488-20.808,49.946-27.454,16.4-5.9,33.252-16.149,39.361-33.422s-2.817-35.6-17.735-44.959c-1.337-.838-2.565,1.276-1.235,2.112,15,9.406,23.123,28.152,15.5,44.943-6.862,15.127-22.317,23.922-37.321,29.244-13.695,4.856-28.5,8.1-40.2,17.209-12.1,9.418-16.769,25.171-29.469,33.91-10.646,7.325-25.968,12.439-38.8,8.612a22.634,22.634,0,0,1-15.512-15.623c-2-7.5.636-14.976,5.033-21.086A53.142,53.142,0,0,1,954.986,390.3c6.9-3.955,13.948-5.151,21.554-7.008,13.407-3.275,21.173-14.749,26.623-26.634,6.685-14.578,11.02-30.488,23.516-41.419,14.253-12.469,35.321-17.331,52.3-7.49A1.224,1.224,0,0,0,1080.216,305.64Z" transform="translate(-930.3 -300.058)" fill="#afaff8"/>
        </g>
      </g>
      <path id="Path_21" data-name="Path 21" d="M1023.094,262.422c-6.606-2.106-14.378,2.559-13.812,13.734.288,5.665,2.613,11.669,7.572,14.425,10.78,5.993,16.061-7.213,14.966-16C1030.973,267.783,1027.265,263.752,1023.094,262.422Z" transform="translate(17.676 14.893)" fill="#afaff8"/>
      <path id="Path_22" data-name="Path 22" d="M925.851,139.316c1.119-.5,2.976,4.536,2.976,4.536s-2-6.718-1.227-7.248c1.227-.837,3.385,6.837,3.385,6.837s-2.137-8.414-.522-8.61,2.786,8.37,2.786,8.37-.6-8.127.807-8.053,1.781,10.585,1.781,10.585,3.231-4.227,4.134-3.624c1.524,1.016-4.963,10.283-4.963,10.283l-6.092,1.153S924.732,139.819,925.851,139.316Z" transform="translate(8.273 0.596)" fill="#ecb8af"/>
      <path id="Path_23" data-name="Path 23" d="M1056.71,196.786c-.854-.88-4.439,3.118-4.439,3.118s4.342-5.506,3.815-6.284c-.832-1.23-5.669,5.106-5.669,5.106s5.09-7.032,3.661-7.811-5.677,6.753-5.677,6.753,3.557-7.331,2.222-7.783-5.561,9.181-5.561,9.181-1.443-5.121-2.505-4.894c-1.791.383.82,11.39.82,11.39l5.236,3.317S1057.564,197.666,1056.71,196.786Z" transform="translate(21.352 6.788)" fill="#ecb8af"/>
      <g id="Group_71" data-name="Group 71" transform="translate(911.663 149.627)">
        <path id="Path_24" data-name="Path 24" d="M1063.472,212.086c-2.683-1.841-5.28-3.8-7.87-5.774-.114.177-.23.366-.362.587a202.9,202.9,0,0,1-13.724,20.723c-1.344,1.744-2.472,3.655-3.924,5.324-1.177,1.354-1.2,1.359-2.332-.048a94.8,94.8,0,0,1-7.1-10.344,52.758,52.758,0,0,0-8.706-11.107,29.624,29.624,0,0,0-17.566-8.435,65.939,65.939,0,0,0-11.4.028c-.671,2.793-1.247,5.614-3.233,7.88a6.707,6.707,0,0,1-8.8,1.388c-2.634-1.545-3.816-3.989-4.433-6.817-.16-.736-.271-1.483-.406-2.225-3.719-.18-7.422-.689-11.155-.586a3.938,3.938,0,0,1-2.121-.705,66.942,66.942,0,0,0-11.389-5.189c-5.341-1.87-9.979-5.155-15.09-7.486-.781-.357-.854-.87-.708-1.654,1.207-6.42,2.343-12.855,3.557-19.274s2.954-12.729,4-19.186c.023-.147.042-.286.055-.417-4.444-.316-8.887-.6-13.293-1.175q-.142.269-.27.568c-2.564,6.023-4.959,12.1-6.95,18.34-1.78,5.579-3.635,11.132-5.679,16.622a62.7,62.7,0,0,0-3.1,10.252,11.175,11.175,0,0,0,.69,6.695,36.163,36.163,0,0,0,6.069,9.068c6.481,7.549,13.587,13.332,21.477,19.349a16.045,16.045,0,0,1,3.188,2.924c3.669,4.849,3.505,16.256,4.024,22.312.55,6.411-5.612,11.966-6.512,18.142a17.264,17.264,0,0,0,2.345,11.235,30.66,30.66,0,0,0,9.138,9.83,42.646,42.646,0,0,0,18.445,6.1,46.2,46.2,0,0,0,11.155-.019c6.237-.889,11.386-4.062,16.157-7.962.469-.384.922-.789,1.382-1.183.819-1.094,1.692-2.15,2.444-3.287a20.93,20.93,0,0,0,3.142-14.834c-1.067-7.837-.348-15.622.486-23.412a2.7,2.7,0,0,1,1.892-2.568c1.176-.395,1.626.59,2.236,1.185q6.773,6.617,14.009,12.722a37.938,37.938,0,0,0,8.027,5.169,8.2,8.2,0,0,0,8.615-.792,13.822,13.822,0,0,0,4.2-4.737c3.027-5.182,6.151-10.306,8.751-15.732,2.725-5.686,5.645-11.277,8.387-16.954a51.7,51.7,0,0,0,4.548-13.136C1064.973,213.046,1064.2,212.585,1063.472,212.086Z" transform="translate(-905.011 -147.595)" fill="#2b2b42"/>
        <path id="Path_25" data-name="Path 25" d="M952.517,278.547a42.656,42.656,0,0,0,18.446,6.1,46.194,46.194,0,0,0,11.155-.019c6.237-.889,11.385-4.062,16.157-7.962.469-.384.922-.789,1.382-1.183,2.079,4.035,4.548,7.868,5.682,12.365,2.708,10.745.789,20.459-6.154,29.141a114.075,114.075,0,0,1-18.416,18.592,18.773,18.773,0,0,0-1.742,1.777,2.633,2.633,0,0,0-1.393.714c-1.769,1.431-3.507,2.907-5.347,4.241-5.655,4.1-11.214,8.336-17.345,11.74-2.25,1.248-2.195,1.368-.714,3.639,2.7,4.136,5.563,8.161,8.078,12.416a74.195,74.195,0,0,1,6.085,8.258c2.568,3.864,4.948,7.852,7.529,11.708.9,1.343,1.271,2.515.263,3.889a64.287,64.287,0,0,0-6.343,8.7,14.233,14.233,0,0,0-2.405,3c-.54.725-1.022.779-1.671.2q-3.049-2.74-6.112-5.465a39,39,0,0,0-4.371-3.635q-6.361-5.155-12.724-10.311c-4.127-3.34-8.22-6.723-12.4-9.991-2.807-2.195-5.254-4.834-8.315-6.709-2.795-2.792-5.575-5.6-8.389-8.369a46.315,46.315,0,0,1-5.292-6.274c-3.38-4.777-3.363-8.486.106-13.157a117.294,117.294,0,0,1,12.518-13.894c2.671-2.605,5.341-5.206,7.845-7.971,6.082-6.714,12.463-13.145,18.721-19.691a3.914,3.914,0,0,0,1.245-2.99A50.733,50.733,0,0,1,952.517,278.547Z" transform="translate(-905.642 -133.209)" fill="#ecb8af"/>
        <path id="Path_26" data-name="Path 26" d="M920.367,360.222c3.06,1.876,5.508,4.514,8.315,6.709,4.182,3.269,8.275,6.652,12.4,9.991q6.366,5.151,12.724,10.311a41.13,41.13,0,0,0,1.6,7.77c2.1,8.533,4.136,17.08,5.871,25.7.339,1.682.274,1.705-1.281,2.251-.858.3-1.728.562-2.591.841l-10.763,3.337c-.99.378-1.975.772-2.971,1.134-1.881.681-1.9.677-2.6-1.107-1.375-3.458-2.7-6.934-4.111-10.377-2.933-7.169-5.856-14.343-8.875-21.475a266.943,266.943,0,0,1-8.834-25.616A11.818,11.818,0,0,1,920.367,360.222Z" transform="translate(-904.171 -123.677)" fill="#d86f5f"/>
        <path id="Path_27" data-name="Path 27" d="M957.5,363.854c-2.515-4.255-5.382-8.28-8.078-12.416-1.481-2.271-1.535-2.391.714-3.639,6.131-3.4,11.69-7.642,17.345-11.74,1.84-1.334,3.578-2.81,5.347-4.241a2.633,2.633,0,0,1,1.393-.714c-1.626,3.246-3.211,6.516-4.888,9.737-3.606,6.922-7.263,13.816-10.886,20.73A5.186,5.186,0,0,0,957.5,363.854Z" transform="translate(-900.836 -126.953)" fill="#d86f5f"/>
        <path id="Path_28" data-name="Path 28" d="M944.855,420.7l10.763-3.337c.1.98.188,1.962.3,2.94a6.7,6.7,0,0,1-2,6.046c-4.941,4.5-9.562,9.362-14.892,13.431a6.433,6.433,0,0,1-2.136,1.282c-1.493.407-2.405-.3-2.3-1.858a9.866,9.866,0,0,1,2.25-5.152,21.747,21.747,0,0,1,2.748-3.037c2.849-2.625,3.97-6.24,5.607-9.561C945.367,421.124,945.086,420.9,944.855,420.7Z" transform="translate(-902.385 -117.249)" fill="#2b2b42"/>
        <path id="Path_29" data-name="Path 29" d="M963.347,390.684a64.287,64.287,0,0,1,6.343-8.7,7.518,7.518,0,0,1,3.792,8.088c-.349,2.552-.6,5.119-.972,7.667a44.428,44.428,0,0,0-.437,7.48,7.961,7.961,0,0,1-.452,2.908,1.836,1.836,0,0,1-3.226.763,6.041,6.041,0,0,1-1.707-2.911,33.056,33.056,0,0,1-.928-4.442A57.909,57.909,0,0,0,963.347,390.684Z" transform="translate(-899.151 -121.229)" fill="#2b2b42"/>
        <path id="Path_30" data-name="Path 30" d="M985.135,176.677c-1.721-.323-3.44.982-4.126,3-.128-.083-.264-.18-.416-.3a5.972,5.972,0,0,1-1.958-2.565,5.576,5.576,0,0,1-.358-1.678c-.039-.637-.067-1.285-.1-2.1l-.018.009a5.275,5.275,0,0,0-1.951,1.361c-.168.17-.427-.426-.593-.261-2.351,2.37-4.6,2.657-8.221,2.908a4.284,4.284,0,0,1-1.313-.343c-.3-.248-.591-.485-.857-.733a14.863,14.863,0,0,0-.38,3.36,13.72,13.72,0,0,0,2.219,7.648c.021.032.044.063.067.1a8.575,8.575,0,0,0,5.011,3.647,2.541,2.541,0,0,1,.424,2c-.053.448.009.913-.07,1.355-.473,2.642-1.347,4.982-4.39,5.635-.334.071-.379.439-.523.7.135.742.246,1.488.406,2.225.617,2.828,1.8,5.272,4.433,6.817a6.707,6.707,0,0,0,8.8-1.388c1.986-2.266,2.562-5.086,3.233-7.88a12.292,12.292,0,0,1-5.964-10.174c-.015-.295-.078-.6-.078-.884a11.109,11.109,0,0,0,3.235-4.716,3.031,3.031,0,0,0,1.817,1.157c1.938.364,3.88-1.332,4.341-3.786S987.072,177.041,985.135,176.677Z" transform="translate(-898.982 -144.734)" fill="#ecb8af"/>
        <path id="Path_31" data-name="Path 31" d="M987.48,155.77a6.461,6.461,0,0,0-7.482-.857,6.646,6.646,0,0,0-3.977,6.386,17.846,17.846,0,0,0,.418,3.582,14.823,14.823,0,0,0-5.134-1.76,10.611,10.611,0,0,0-8.218,2.162,7.877,7.877,0,0,0-2.661,7.847c.848,3.089,3.74,4.915,6.635,5.816,4.333,1.347,8.13-1.135,11.659-3.369.023.624.049,1.159.08,1.681a5.652,5.652,0,0,0,2.312,4.245c1,.78,1.389.79,1.97-.1.048-.086.1-.171.162-.266.276-.447.485-.942.723-1.408a22.445,22.445,0,0,0,.523-5.321,7.924,7.924,0,0,0,7.434-7.042C992.667,162.651,990.925,158.8,987.48,155.77Z" transform="translate(-899.505 -146.862)" fill="#2b2b42"/>
      </g>
      <g id="Group_73" data-name="Group 73" transform="translate(946.086 298.281)">
        <g id="Group_72" data-name="Group 72" transform="translate(0 0)">
          <path id="Path_32" data-name="Path 32" d="M985.595,282.266c7.818,15.009-4.6,31.816-15.135,41.864-9.927,9.466-21.807,16.556-33.543,23.515a.694.694,0,0,0,.7,1.2c13.768-8.163,27.9-16.592,38.623-28.694,9.008-10.161,17.555-25.137,10.552-38.581-.413-.792-1.61-.091-1.2.7Z" transform="translate(-936.584 -281.218)" fill="#d86f5f"/>
        </g>
      </g>
      <g id="Group_75" data-name="Group 75" transform="translate(943.1 361.403)">
        <g id="Group_74" data-name="Group 74" transform="translate(0 0)">
          <path id="Path_33" data-name="Path 33" d="M934.02,338.97a566.479,566.479,0,0,0,37.137,48.868c.578.681,1.556-.3.981-.981a563.023,563.023,0,0,1-36.921-48.587c-.5-.735-1.7-.042-1.2.7Z" transform="translate(-933.9 -337.957)" fill="#d86f5f"/>
        </g>
      </g>
      <g id="Group_76" data-name="Group 76" transform="translate(944.494 455.074)">
        <path id="Path_34" data-name="Path 34" d="M955.625,422.46c-5.348,7.4-12.834,12.809-20.169,18.077-.718.516-.027,1.72.7,1.2,7.542-5.417,15.169-10.969,20.666-18.575.524-.724-.679-1.417-1.2-.7Z" transform="translate(-935.153 -422.157)" fill="#fff"/>
      </g>
      <g id="Group_77" data-name="Group 77" transform="translate(947.92 462.682)">
        <path id="Path_35" data-name="Path 35" d="M938.435,430.171q2.448,1.916,4.8,3.949a.71.71,0,0,0,.98,0,.7.7,0,0,0,0-.981q-2.35-2.033-4.8-3.948a.715.715,0,0,0-.98,0,.7.7,0,0,0,0,.98Z" transform="translate(-938.232 -428.996)" fill="#fff"/>
      </g>
      <g id="Group_78" data-name="Group 78" transform="translate(949.03 460.309)">
        <path id="Path_36" data-name="Path 36" d="M939.574,428.15q3.386,1.842,6.6,3.977a.693.693,0,0,0,.7-1.2q-3.209-2.134-6.6-3.977c-.784-.427-1.485.77-.7,1.2Z" transform="translate(-939.231 -426.862)" fill="#fff"/>
      </g>
      <g id="Group_79" data-name="Group 79" transform="translate(976.574 422.784)">
        <path id="Path_37" data-name="Path 37" d="M972.777,393.251a73.108,73.108,0,0,1-8.434,4.875c-.8.395-.1,1.591.7,1.2a73.128,73.128,0,0,0,8.434-4.876c.738-.5.044-1.7-.7-1.2Z" transform="translate(-963.989 -393.132)" fill="#fff"/>
      </g>
      <g id="Group_80" data-name="Group 80" transform="translate(976.71 426.439)">
        <path id="Path_38" data-name="Path 38" d="M973.068,396.524q-4.207,2.583-8.606,4.828c-.8.4-.094,1.6.7,1.2q4.4-2.244,8.606-4.828c.76-.466.064-1.665-.7-1.2Z" transform="translate(-964.111 -396.417)" fill="#fff"/>
      </g>
      <g id="Group_81" data-name="Group 81" transform="translate(982.769 413.622)">
        <path id="Path_39" data-name="Path 39" d="M972.736,385.565q-.287,6.054-.9,12.085-.3,2.954-.69,5.9c-.255,1.944-.368,4.047-1.473,5.73-.491.749.71,1.444,1.2.7a12.306,12.306,0,0,0,1.512-5.3q.412-3.035.74-6.082.7-6.5,1-13.029c.042-.892-1.345-.89-1.387,0Z" transform="translate(-969.558 -384.896)" fill="#fff"/>
      </g>
      <ellipse id="Ellipse_23" data-name="Ellipse 23" cx="10.347" cy="11.89" rx="10.347" ry="11.89" transform="translate(985.064 154.14)" fill="#2b2b42"/>
      <path id="Path_40" data-name="Path 40" d="M975.079,181.876a3.156,3.156,0,0,1-6.282-.314Z" transform="translate(13.126 5.853)" fill="#fff"/>
      <circle id="Ellipse_24" data-name="Ellipse 24" cx="6.482" cy="6.482" r="6.482" transform="translate(1080.4 273.508)" fill="#e2ac63"/>
      <path id="Path_41" data-name="Path 41" d="M1058.011,132.961a3.432,3.432,0,1,1-3.432-3.431A3.431,3.431,0,0,1,1058.011,132.961Z" transform="translate(22.389)" fill="#d86f5f"/>
      <path id="Path_42" data-name="Path 42" d="M1024.671,163.1l3.906,7.142,7.142,3.906-7.142,3.906-3.906,7.142-3.906-7.142-7.142-3.906,7.142-3.906Z" transform="translate(18.168 3.776)" fill="#ecb8af"/>
    </g>
    <g id="Group_196" data-name="Group 196" transform="translate(-569.313 -304.888)">
      <path id="Path_114" data-name="Path 114" d="M977.33,614.431c-2.281-6.305-7.028-11.851-13.56-13.464-12.086-.983-18.392,2.086-24.642,8.114s-9.835,14.226-13.318,22.179-7.184,16.124-13.582,21.993c-10.921,10.018-27.76,11.594-38.39,21.919s-12.228,27.963-5.469,41.153,20.6,21.89,35.169,24.631a45.221,45.221,0,0,0,14.38.571c14.043-1.9,26-12.252,32.429-24.881s7.94-27.252,7.184-41.4c-.369-6.9-1.19-14.137,1.652-20.431,5.634-12.478,20.033-16.768,19.66-32.493A25.156,25.156,0,0,0,977.33,614.431Z" fill="#afaff8"/>
      <g id="Group_159" data-name="Group 159">
        <g id="Group_158" data-name="Group 158">
          <path id="Path_115" data-name="Path 115" d="M1032.2,753.8c-12.415-7.2-27.346-6.26-39.831.3-13.048,6.857-20.333,18.3-25.873,31.518-6.179,14.738-12.013,32.413-29.6,36.207-13.6,2.934-25.852,8.455-34.233,20.142-7.277,10.148-7.484,23.844,2.81,32.155,9.322,7.527,23.029,5.857,33.457,1.829a51.164,51.164,0,0,0,14.838-8.616c5.959-5.088,9.556-12.151,14.1-18.4,10.976-15.11,28.3-18.7,44.9-24.679,14.738-5.307,29.889-14.515,35.381-30.043s-2.533-32-15.943-40.412c-1.2-.754-2.306,1.147-1.109,1.9,13.482,8.455,20.785,25.306,13.937,40.4-6.169,13.6-20.06,21.5-33.548,26.286-12.31,4.366-25.62,7.284-36.133,15.47-10.873,8.465-15.073,22.625-26.489,30.48-9.57,6.584-23.342,11.182-34.877,7.742a20.347,20.347,0,0,1-13.944-14.043c-1.8-6.742.572-13.463,4.524-18.954a47.774,47.774,0,0,1,15.072-13.176c6.2-3.556,12.539-4.63,19.376-6.3,12.051-2.943,19.031-13.258,23.93-23.941,6.009-13.1,9.906-27.405,21.138-37.23,12.813-11.209,31.751-15.579,47.014-6.734A1.1,1.1,0,0,0,1032.2,753.8Z" fill="#afaff8"/>
        </g>
      </g>
      <path id="Path_116" data-name="Path 116" d="M1014.9,640.9a2.822,2.822,0,1,1-2.822-2.822A2.821,2.821,0,0,1,1014.9,640.9Z" fill="#d86f5f"/>
      <path id="Path_117" data-name="Path 117" d="M1039.09,728.154a2.822,2.822,0,1,1-2.822-2.821A2.822,2.822,0,0,1,1039.09,728.154Z" fill="#d86f5f"/>
      <path id="Path_118" data-name="Path 118" d="M883.764,770.622a2.822,2.822,0,1,1-2.822-2.822A2.822,2.822,0,0,1,883.764,770.622Z" fill="#e2ac63"/>
      <g id="Group_189" data-name="Group 189">
        <g id="Group_183" data-name="Group 183">
          <path id="Path_119" data-name="Path 119" d="M991.595,847.712c.564-1.82,1.277-3.589,1.686-5.464.972-4.445,1.05-8.8-1.051-12.983.556-.256,1.106-.524,1.667-.769a5.79,5.79,0,0,1,6.746,1.381,8.193,8.193,0,0,1,2.433,6.889c-.2,2.04-.366,4.084-.611,6.117a80.092,80.092,0,0,0-.43,12.871,30.682,30.682,0,0,1-.17,3.271,3.771,3.771,0,0,1-.454,1.563c-.873,1.6-2.254,1.955-3.718.886a9.207,9.207,0,0,1-3.423-5.657,51.334,51.334,0,0,0-1.705-6.325A5.512,5.512,0,0,0,991.595,847.712Z" fill="#9bf4ab"/>
          <g id="Group_160" data-name="Group 160">
            <path id="Path_120" data-name="Path 120" d="M1040.416,647.036a14.062,14.062,0,0,0-5.514-3.191,18.944,18.944,0,0,0-13.111.348c-6.53,2.693-11.032,8.85-17.287,12.131-6.118,3.208-13.608,3.505-19.21,7.547-3.322,2.4-5.837,6.024-9.668,7.477a15.738,15.738,0,0,1-8.149.379c-7.476-1.247-15.058-5.325-17.915-12.346-1.95-4.792-1.524-10.458-4.275-14.84-1.734-2.762-4.619-4.8-5.748-7.857-1.6-4.331.817-8.984,1.7-13.516a19.472,19.472,0,0,0-3.325-15.155,17.652,17.652,0,0,0-13.676-7.113s-3.844-.407-9.729,2.833c-7.3,5.044-9.767,15.071-8.221,23.808s6.365,16.5,11.2,23.94,9.876,15,11.965,23.624a6.927,6.927,0,0,1,.048,4.2c-.6,1.481-2.046,2.406-3.311,3.384-11.175,8.634-11.633,25.437-19.934,36.862-2.69,3.7-6.17,6.776-8.872,10.47-3.289,4.5-5.148,10.28-2.617,15.579a13.106,13.106,0,0,0,11.611,7.393c.194,0,.388-.009.582-.022,1.991-.127,3.936-.727,5.93-.761a21.023,21.023,0,0,1,5.885,1.033A222.082,222.082,0,0,1,942,760.574c7.886,3.139,15.443,7.192,23.635,9.415s17.406,2.417,24.708-1.911c6.294-3.73,10.462-10.538,11.751-17.74a36.519,36.519,0,0,0-3.163-21.38c-2.2-4.825-5.25-9.283-6.864-14.336s-1.508-11.129,2.077-15.038c2.052-2.237,4.941-3.463,7.583-4.957a38,38,0,0,0,10.3-8.528,49.742,49.742,0,0,1,4.779-5.466c3.377-2.978,7.873-4.277,11.834-6.418a31.108,31.108,0,0,0,11.5-10.8c2.762-4.406,4.951-9.785,1.774-14.583A11.162,11.162,0,0,0,1040.416,647.036Z" fill="#9bf4ab"/>
            <path id="Path_121" data-name="Path 121" d="M991.595,847.712c-.335.511-.687,1.012-1,1.534a14.71,14.71,0,0,1-16.9,6.767,13.908,13.908,0,0,1-4-1.535c-2.293-1.487-4.51-1.126-6.806-.2-2.233.58-4.461,1.182-6.7,1.725a1.15,1.15,0,0,0-.977,1.315,17.469,17.469,0,0,1-2.749,9.248c-.057.038-.132.064-.168.116-4.813,7.214-14.821,6.164-20.211,1.123-1.645-1.539-3.156-3.222-4.746-4.821-1.156-1.164-2.306-2.339-3.521-3.438a37.76,37.76,0,0,0-9.406-6.49,130.49,130.49,0,0,1-18.289-10.1A41.683,41.683,0,0,1,885.2,832.249c-4.326-6.185-5.174-12.947-3.366-20.155a39.131,39.131,0,0,1,5.837-12.581c2.391-3.5,4.73-7.045,7.324-10.39a124.29,124.29,0,0,0,13.287-21.867c2.31-4.734,4.712-9.408,7.375-13.951.24-.41.425-.853.635-1.281a40.245,40.245,0,0,0,4.177-7.726c1.15-2.624,2.208-5.3,4.137-7.495.587.468,1.179.929,1.759,1.4a42.825,42.825,0,0,0,14.755,8.2c7.709,2.322,15.5,4.351,23.561,5.055a3.673,3.673,0,0,1,2.509.673,4.464,4.464,0,0,0,0,.809c1.065,5.862,2.184,11.716,2.681,17.664.316,8.176-1.839,15.841-4.9,23.3-1.167,2.843-2.6,5.57-3.834,8.392a17.337,17.337,0,0,0-1.344,9.82,43.108,43.108,0,0,1,.079,14.5c-.215,1.191-.089,1.192,1.181,1.145a53.022,53.022,0,0,0,15.872-2.966,17.606,17.606,0,0,1,4.838-.832,10.838,10.838,0,0,1,9.785,4.547c.206.267.453.5.681.751,2.1,4.186,2.023,8.538,1.051,12.983C992.872,844.123,992.159,845.892,991.595,847.712ZM924.55,805.836c-1.417,1.368-2.43,2.37-3.47,3.344-.995.933-2.051,1.8-3.02,2.763a3.3,3.3,0,0,0-.027,5.12c1.453,1.441,2.894,2.9,4.352,4.332,1.346,1.328,1.61,1.277,2.325-.448a2.192,2.192,0,0,0,.2-.978A85.787,85.787,0,0,1,924.55,805.836Z" fill="#d86f5f"/>
            <path id="Path_122" data-name="Path 122" d="M977.709,662.686a1.787,1.787,0,0,0-1.284-1.411.8.8,0,0,0-.426,0,1,1,0,0,0-.473.446,7.873,7.873,0,0,1-1.484,2.088c-.675.532-1.854.564-2.242-.2-.088-.174-.16-.4-.351-.436a.5.5,0,0,0-.393.18,41.747,41.747,0,0,1-8.249,5.769c-.107.057-.228.135-.234.257,0,.107.086.191.154.274.372.452.176,1.126-.053,1.664-.669,1.575-1.692,3.254-3.369,3.592a1.865,1.865,0,0,0-.755.23,1.289,1.289,0,0,0-.411.683A8.208,8.208,0,0,0,960.393,684a5.426,5.426,0,0,0,4.346,1.6,5.76,5.76,0,0,0,2.757-1.251c2.062-1.62,5.047-4.708,3.191-6.428-3.064-2.841-1.035-9.627,2.635-11.473a5.774,5.774,0,0,1,1.418-.378,3.92,3.92,0,0,0,2.838-1.927A2.267,2.267,0,0,0,977.709,662.686Z" fill="#d86f5f"/>
            <path id="Path_123" data-name="Path 123" d="M952.459,866.569a17.469,17.469,0,0,0,2.749-9.248,1.15,1.15,0,0,1,.977-1.315c2.242-.543,4.47-1.145,6.7-1.725,2.056,1.586,2.556,3.84,2.443,6.225a67.769,67.769,0,0,1-.807,6.906,55.006,55.006,0,0,0-.3,7.55c-.018,1.635.123,3.27.148,4.906a4.909,4.909,0,0,1-.845,3.109,2.155,2.155,0,0,1-3.212.57,7.714,7.714,0,0,1-3.178-5.1,25.421,25.421,0,0,0-4.489-11.089A2.124,2.124,0,0,1,952.459,866.569Z" fill="#9bf4ab"/>
            <path id="Path_124" data-name="Path 124" d="M979.06,700.078a4.221,4.221,0,0,0-.049-4.624,18.176,18.176,0,0,1-2.505-8.14,50.654,50.654,0,0,1,.149-6.128c.078-2.032-.67-2.872-2.7-3.085-1.084-.114-2.178-.119-3.267-.172a8.381,8.381,0,0,1-3.65,6.773,4.794,4.794,0,0,1-5.582.108c-3.4-2.2-4.549-6.941-2.962-9.724-2.354-1.012-3.632-.7-5.228,1.558a61.576,61.576,0,0,1-10.464,11.2l-.049.041q-.3.225-.572.476c-.215.179-.429.36-.645.537.01.033.016.066.025.1a5.347,5.347,0,0,0-1.384,3.075c-.454,7.083,1.147,14.774-2.464,20.884-1.74,2.945-4.5,5.118-7.1,7.345s-5.178,4.7-6.347,7.916a8.476,8.476,0,0,0,.959,7.856,11.117,11.117,0,0,0,.177,1.373c.321.254.644.507.96.766a42.825,42.825,0,0,0,14.755,8.2c7.709,2.322,15.5,4.351,23.561,5.055a3.673,3.673,0,0,1,2.509.673,6.231,6.231,0,0,0,3.042-3.454,22.57,22.57,0,0,0,1.7-10.216,88.32,88.32,0,0,1,.1-16.558,50.409,50.409,0,0,1,2.23-11.209A66.945,66.945,0,0,1,979.06,700.078Zm-47.91,28.1c-.427.322-.894.648-1.371.985a30.539,30.539,0,0,1,3.158-2.49A22.826,22.826,0,0,1,931.15,728.177Z" fill="#2b2b42"/>
            <path id="Path_125" data-name="Path 125" d="M974.671,661.034c-1.429,6.508-5.875,11.093-9.914,10.175-5.772-1.313-6.168-6.886-4.738-13.394s5.869-11.063,9.915-10.175S976.1,654.526,974.671,661.034Z" fill="#d86f5f"/>
            <path id="Path_126" data-name="Path 126" d="M964.835,650.67c-1.494-.484-2.992-.953-4.48-1.455-7.235-2.444-12.158-7.09-13.358-14.846-.866-5.6.56-10.624,5.139-14.355a9.988,9.988,0,0,1,8.619-2.286c6.581,1.354,8.287,6.756,7.624,11.274a27.083,27.083,0,0,1-1.89,6.265,2.747,2.747,0,0,0-.328,1.563c.715,4.286,2.291,8.008,6.378,10.194a12.541,12.541,0,0,1,3,2.132,3.823,3.823,0,0,1,1.19,3.729,5.836,5.836,0,0,0,.074,2.807c.468,1.961-.327,3.761-.977,5.559a9.359,9.359,0,0,1-1.747,2.484c-.955.821-1.633.742-2.391-.282a4.669,4.669,0,0,1-.884-3.468,9.924,9.924,0,0,1,2.165-4.973c1.026-1.3.993-1.421-.524-2.159A33.728,33.728,0,0,0,964.835,650.67Z" fill="#2b2b42"/>
            <path id="Path_127" data-name="Path 127" d="M978.476,664.084c-1.21,2.4-3.267,3.807-4.594,3.139s-1.423-3.158-.213-5.56,3.266-3.808,4.594-3.139S979.686,661.682,978.476,664.084Z" fill="#d86f5f"/>
            <path id="Path_128" data-name="Path 128" d="M962,658.561c.321,2.391-.5,4.474-1.837,4.654s-2.679-1.613-3-4.005.5-4.474,1.836-4.654S961.681,656.169,962,658.561Z" fill="#d86f5f"/>
          </g>
          <path id="Path_129" data-name="Path 129" d="M967.579,663.6a2.837,2.837,0,0,1-5.369-1.773Z" fill="#fff"/>
          <path id="Path_130" data-name="Path 130" d="M1047,642.3c-.669-.888-4.343,2.3-4.343,2.3s4.526-4.457,4.14-5.217c-.609-1.2-5.674,3.949-5.674,3.949s5.371-5.745,4.174-6.607-5.867,5.428-5.867,5.428,4.027-6.188,2.878-6.745-6.037,7.624-6.037,7.624-.718-4.766-1.7-4.682c-1.654.141-.553,10.33-.553,10.33l4.333,3.575S1047.671,643.191,1047,642.3Z" fill="#d86f5f"/>
          <path id="Path_131" data-name="Path 131" d="M910.128,595.809c.82-.75,3.846,3.059,3.846,3.059s-3.629-5.213-3.11-5.889c.819-1.068,4.851,4.924,4.851,4.924s-4.224-6.634-2.889-7.261,4.769,6.414,4.769,6.414-2.821-6.823-1.589-7.159,4.534,8.6,4.534,8.6,1.581-4.554,2.529-4.291c1.6.442-1.355,10.255-1.355,10.255l-4.916,2.718S909.308,596.559,910.128,595.809Z" fill="#d86f5f"/>
          <g id="Group_161" data-name="Group 161">
            <path id="Path_132" data-name="Path 132" d="M1032.14,649.475c2.126,2.226,4.288,3.84,7.42,4.206,1.591.185,1.578-2.31,0-2.494-2.423-.282-4.045-1.787-5.657-3.475-1.11-1.163-2.871.6-1.763,1.763Z" fill="#f0fef3"/>
          </g>
          <g id="Group_162" data-name="Group 162">
            <path id="Path_133" data-name="Path 133" d="M924.259,603.859a11.47,11.47,0,0,0-9.812,4.684c-.97,1.278,1.194,2.521,2.153,1.259a8.9,8.9,0,0,1,7.659-3.449c1.6.08,1.6-2.413,0-2.494Z" fill="#f0fef3"/>
          </g>
          <g id="Group_163" data-name="Group 163">
            <path id="Path_134" data-name="Path 134" d="M955.869,670.879a42.04,42.04,0,0,1-20.316,19.439c-7.3,3.29-16.774,6.369-17.908,15.6-.1.795,1.15.788,1.247,0,1.275-10.386,14.189-12.364,21.613-16.744a43.01,43.01,0,0,0,16.44-17.667c.361-.714-.714-1.346-1.076-.629Z" fill="#f0fef3"/>
          </g>
          <g id="Group_164" data-name="Group 164">
            <path id="Path_135" data-name="Path 135" d="M917.584,709.789a26.178,26.178,0,0,1-2.543,6.028.624.624,0,0,0,1.076.629,27.518,27.518,0,0,0,2.669-6.325.624.624,0,0,0-1.2-.332Z" fill="#f0fef3"/>
          </g>
          <g id="Group_165" data-name="Group 165">
            <path id="Path_136" data-name="Path 136" d="M976.349,675.542c1.168,3.711-.224,7.319-.19,11.075a21.511,21.511,0,0,0,1.915,8.023c2.265,5.44,5.843,10.706,5.112,16.856-.094.8,1.153.788,1.247,0,.69-5.815-2.351-10.9-4.642-16.01-1.384-3.088-2.52-6.311-2.365-9.744.162-3.592,1.241-6.986.125-10.531-.241-.763-1.444-.437-1.2.331Z" fill="#f0fef3"/>
          </g>
          <g id="Group_166" data-name="Group 166">
            <path id="Path_137" data-name="Path 137" d="M984.461,718.635a11.164,11.164,0,0,0,.615,4.728c.267.75,1.472.427,1.2-.332a10.318,10.318,0,0,1-.571-4.4c.067-.8-1.18-.795-1.246,0Z" fill="#f0fef3"/>
          </g>
          <g id="Group_167" data-name="Group 167">
            <path id="Path_138" data-name="Path 138" d="M973.616,767.426c6.312-.108,13.369-3.7,15.634-9.849,2.57-6.971-.327-14.179-3.044-20.618-.311-.736-1.385-.1-1.077.63,2.411,5.71,5,11.982,3.356,18.264-1.677,6.4-8.505,10.218-14.869,10.326a.624.624,0,0,0,0,1.247Z" fill="#f0fef3"/>
          </g>
          <g id="Group_168" data-name="Group 168">
            <path id="Path_139" data-name="Path 139" d="M912.709,724.321c-4.73,3.384-8.54,8.723-9.142,14.638-.256,2.513.385,5.3,2.634,6.757,2.773,1.8,6.313-.409,8.961,1.462.656.463,1.28-.617.629-1.077-1.5-1.059-3.056-.974-4.827-.861-1.721.111-3.539.187-4.838-1.2-1.356-1.443-1.511-3.569-1.248-5.424a20.285,20.285,0,0,1,8.46-13.223c.647-.462.025-1.544-.629-1.076Z" fill="#f0fef3"/>
          </g>
          <g id="Group_169" data-name="Group 169">
            <path id="Path_140" data-name="Path 140" d="M930.133,680.184a43.617,43.617,0,0,0,18.5-28.392c.14-.784-1.061-1.121-1.2-.331A42.393,42.393,0,0,1,929.5,679.108c-.661.447-.038,1.528.629,1.076Z" fill="#f0fef3"/>
          </g>
          <g id="Group_170" data-name="Group 170">
            <path id="Path_141" data-name="Path 141" d="M986.121,662.505a48.618,48.618,0,0,0,1.18,21.73c1.491,5.308,3.274,11.333,8.407,14.2.7.392,1.331-.685.63-1.076-5.067-2.829-6.7-9.151-8.089-14.379a46.587,46.587,0,0,1-.926-20.142c.137-.785-1.064-1.122-1.2-.332Z" fill="#f0fef3"/>
          </g>
          <g id="Group_171" data-name="Group 171">
            <path id="Path_142" data-name="Path 142" d="M954.179,677.8a10.537,10.537,0,0,0,6.548,11.371c5.241,2.009,8.876-.876,11.322-5.294.389-.7-.687-1.332-1.076-.629-.914,1.65-1.874,3.467-3.54,4.483a7.441,7.441,0,0,1-6.908,0,9.367,9.367,0,0,1-5.1-9.935c.1-.794-1.145-.786-1.246,0Z" fill="#fff"/>
          </g>
          <g id="Group_172" data-name="Group 172">
            <path id="Path_143" data-name="Path 143" d="M925.618,736.829c-1.368-4.1,4.163-6.319,6.8-8.252a54.95,54.95,0,0,0,16.391-19.1c.372-.71-.7-1.34-1.077-.629a54.735,54.735,0,0,1-12.9,16.244c-2.459,2.1-5.217,3.672-7.772,5.616-2.086,1.588-3.542,3.787-2.651,6.454.253.757,1.457.433,1.2-.331Z" fill="#fff"/>
          </g>
          <g id="Group_173" data-name="Group 173">
            <path id="Path_144" data-name="Path 144" d="M950.005,701.422a5.643,5.643,0,0,1-.993,3.342c-.449.667.631,1.292,1.077.629a6.815,6.815,0,0,0,1.162-3.971.623.623,0,0,0-1.246,0Z" fill="#fff"/>
          </g>
          <g id="Group_174" data-name="Group 174">
            <path id="Path_145" data-name="Path 145" d="M959.986,748.979c6.252,13.643,2.561,28.994-4.809,41.385-1.3,2.18-3.749,4.612-3.862,7.263-.124,2.928,1.36,6.2,1.809,9.1,1.113,7.193.371,15.03-5.106,20.348a.629.629,0,0,0,.275,1.042,6.986,6.986,0,0,1,4.937,7.456.628.628,0,0,0,.938.538,19.445,19.445,0,0,1,20.567.7.636.636,0,0,0,.756-.1,15.115,15.115,0,0,1,17.42-1.56.624.624,0,0,0,.63-1.076,16.255,16.255,0,0,0-10.031-2.155,16.491,16.491,0,0,0-4.508,1.15c-1.411.584-3.211,2.443-4.577,2.051-1.665-.477-3.19-1.644-4.921-2.129a20.981,20.981,0,0,0-5.325-.765,20.56,20.56,0,0,0-10.64,2.808l.938.538a8.225,8.225,0,0,0-5.853-8.658q.138.52.275,1.042c4.643-4.508,6.242-10.974,5.9-17.289a74.36,74.36,0,0,0-1.9-11.034c-.523-2.521.437-4.036,1.742-6.046q1.548-2.382,2.916-4.876c6.749-12.339,9.553-27.176,3.509-40.366-.334-.728-1.409-.095-1.077.63Z" fill="#fff"/>
          </g>
          <g id="Group_175" data-name="Group 175">
            <path id="Path_146" data-name="Path 146" d="M925.061,805.188c-3.171-3.674-6.363-7.609-5.8-12.774.086-.8-1.161-.79-1.246,0-.591,5.467,2.8,9.751,6.169,13.656.525.608,1.4-.277.882-.882Z" fill="#fff"/>
          </g>
          <g id="Group_176" data-name="Group 176">
            <path id="Path_147" data-name="Path 147" d="M924.485,805.392c-1.342,11.413-2.13,23.133,5.058,32.876.471.638,1.553.017,1.076-.63-7.062-9.572-6.2-21.058-4.887-32.246.093-.8-1.154-.789-1.247,0Z" fill="#fff"/>
          </g>
          <g id="Group_177" data-name="Group 177">
            <path id="Path_148" data-name="Path 148" d="M936.888,846.093a24.511,24.511,0,0,0,5.943,5.5,36.073,36.073,0,0,0,8.2,2.97c2.522.728,5.213,1.7,7.876,1.247,2.738-.465,7.411-3.267,9.929-1.3.625.488,1.513-.388.881-.882-1.7-1.331-3.592-.96-5.59-.537-3.49.739-6.166,2.015-9.807,1.095a70.934,70.934,0,0,1-8.79-2.692c-3.259-1.3-5.515-3.684-7.759-6.28-.526-.608-1.4.277-.881.882Z" fill="#fff"/>
          </g>
          <g id="Group_178" data-name="Group 178">
            <path id="Path_149" data-name="Path 149" d="M919.367,799.2a77.229,77.229,0,0,1-13.206,13.256.628.628,0,0,0-.1.755,23.758,23.758,0,0,1,1.9,17.133.624.624,0,0,0,1.2.331,25.09,25.09,0,0,0,.777-8.75c-.266-2.824-1.4-5.182-2.071-7.864-.276-1.106-.421-.839.5-1.786.49-.5,1.1-.913,1.633-1.371q1.774-1.533,3.451-3.175a77.432,77.432,0,0,0,6.787-7.647c.488-.626-.388-1.514-.881-.882Z" fill="#fff"/>
          </g>
          <g id="Group_179" data-name="Group 179">
            <path id="Path_150" data-name="Path 150" d="M909.206,832.1c18.984,2.761,23.079,33.316,44.288,30.087.791-.12.455-1.322-.331-1.2-11.11,1.691-18.6-8.379-24.553-16.08-4.9-6.333-10.722-12.792-19.073-14.007-.784-.114-1.123,1.087-.331,1.2Z" fill="#fff"/>
          </g>
          <g id="Group_180" data-name="Group 180">
            <path id="Path_151" data-name="Path 151" d="M935.652,744.216c-2.737-5.577-8.636-11.881-15.295-12.165-3.041-.13-5.385,1.54-7.687,3.306a11.875,11.875,0,0,1-4.58,2.6c-2.646.545-5.282-.83-7.565-1.974-1.431-.717-2.7,1.433-1.259,2.152,2.918,1.463,6.142,2.977,9.487,2.226,2.776-.623,4.768-2.71,7.039-4.255,6.961-4.738,14.789,3.419,17.707,9.364.707,1.44,2.858.178,2.153-1.258Z" fill="#ecb8af"/>
          </g>
          <g id="Group_182" data-name="Group 182">
            <g id="Group_181" data-name="Group 181">
              <path id="Path_152" data-name="Path 152" d="M946.237,746.223a5.057,5.057,0,0,0-7.619.081c-2.957,3.25-3.645,7.921-5.84,11.614-1.162,1.953-2.9,3.932-5.183,4.529-2.435.637-4.759-.766-7.133-1.094a7.838,7.838,0,0,0-8.026,4.217c-.753,1.416,1.4,2.677,2.152,1.258a5.344,5.344,0,0,1,4.353-3.042c2.07-.168,4.022.94,6.043,1.232a8.631,8.631,0,0,0,6.923-2.173,18.282,18.282,0,0,0,4.724-7.235c.981-2.367,3.962-11.735,7.843-7.624,1.1,1.169,2.864-.6,1.763-1.763Z" fill="#ecb8af"/>
            </g>
          </g>
        </g>
        <g id="Group_184" data-name="Group 184">
          <path id="Path_153" data-name="Path 153" d="M955.158,747.719a38.206,38.206,0,0,1-4.873,38.465c-1.884,2.471-3.529,4.933-3.6,8.144-.084,3.818.923,7.708,1.123,11.53.4,7.681-.821,15.726-6.292,21.518a1.26,1.26,0,0,0,.55,2.083,9.939,9.939,0,0,1,7.03,10.162c-.092,1.6,2.4,1.6,2.493,0a12.443,12.443,0,0,0-8.86-12.566q.274,1.043.55,2.084c5.1-5.4,7.025-12.69,7.1-19.981.045-4.409-.732-8.689-1.113-13.06-.4-4.571,2.139-7.06,4.564-10.539a40.505,40.505,0,0,0,3.479-39.1c-.649-1.464-2.8-.2-2.153,1.258Z" fill="#fff"/>
        </g>
        <g id="Group_185" data-name="Group 185">
          <path id="Path_154" data-name="Path 154" d="M951.781,841.006a25,25,0,0,1,24.747,4.037c1.225,1.019,3-.735,1.763-1.763a27.484,27.484,0,0,0-27.172-4.678c-1.487.562-.842,2.973.662,2.4Z" fill="#fff"/>
        </g>
        <g id="Group_186" data-name="Group 186">
          <path id="Path_155" data-name="Path 155" d="M979.235,844.288c.741-2.214,3.448-2.745,5.486-3.075a22.566,22.566,0,0,1,9.249.151,1.248,1.248,0,0,0,.663-2.4,25.513,25.513,0,0,0-11.808.077c-2.662.6-5.084,1.87-5.994,4.589-.511,1.524,1.9,2.178,2.4.662Z" fill="#fff"/>
        </g>
        <g id="Group_187" data-name="Group 187">
          <path id="Path_156" data-name="Path 156" d="M997.8,829.457c1.681,2.146,1.654,4.859,1.585,7.452-.075,2.8-.184,5.61-.276,8.415l-.261,7.92c-.077,2.357.519,6.332-1.389,8.064-.595.54.289,1.42.882.881,1.591-1.444,1.567-3.473,1.64-5.48.137-3.795.249-7.59.374-11.385.113-3.434.367-6.9.3-10.332a10.2,10.2,0,0,0-1.972-6.416c-.495-.631-1.371.257-.882.881Z" fill="#f0fef3"/>
        </g>
        <g id="Group_188" data-name="Group 188">
          <path id="Path_157" data-name="Path 157" d="M961.29,855.208c2.162,4.631.848,9.574.376,14.408-.448,4.6,1.17,9.982-1.793,13.965-.479.644.6,1.266,1.077.629,3.139-4.22,1.484-9.74,1.963-14.594.505-5.119,1.732-10.158-.547-15.037-.339-.726-1.414-.094-1.076.629Z" fill="#f0fef3"/>
        </g>
      </g>
    </g>
  </g>
</svg>
